<svg xmlns="http://www.w3.org/2000/svg" width="279.998" height="133.94" viewBox="0 0 279.998 133.94">
  <g id="undraw_subway_7vh7" transform="translate(0.002)">
    <path id="Path_2613" data-name="Path 2613" d="M388.712,219.621V344.579a4.64,4.64,0,0,1-.105.983,4.4,4.4,0,0,1-4.277,3.507H113.367a4.36,4.36,0,0,1-4.043-2.8,4.533,4.533,0,0,1-.325-1.694V219.621a4.428,4.428,0,0,1,4.368-4.491H384.343A4.428,4.428,0,0,1,388.712,219.621Z" transform="translate(-109 -215.13)" fill="#f2f2f2"/>
    <rect id="Rectangle_255" data-name="Rectangle 255" width="104.358" height="117.474" transform="translate(87.534 12.831)" opacity="0.03"/>
    <rect id="Rectangle_256" data-name="Rectangle 256" width="32.505" height="61.018" rx="14.62" transform="translate(101.22 28.513)" opacity="0.03"/>
    <rect id="Rectangle_257" data-name="Rectangle 257" width="32.505" height="61.018" rx="14.62" transform="translate(178.205 89.531) rotate(180)" opacity="0.03"/>
    <rect id="Rectangle_258" data-name="Rectangle 258" width="74.704" height="74.704" rx="19.62" transform="translate(7.412 14.827)" opacity="0.03"/>
    <rect id="Rectangle_259" data-name="Rectangle 259" width="74.704" height="74.704" rx="19.62" transform="translate(272.013 89.531) rotate(180)" opacity="0.03"/>
    <path id="Path_2614" data-name="Path 2614" d="M373.294,100,355,120.028V126.2L377.7,100Z" transform="translate(-253.78 -71.487)" fill="#f2f2f2"/>
    <path id="Path_2615" data-name="Path 2615" d="M387.5,172.3,355,204.046l.143,5.663,32.5-31.823Z" transform="translate(-253.78 -123.172)" fill="#f2f2f2"/>
    <path id="Path_2616" data-name="Path 2616" d="M529.294,100,511,120.028V126.2L533.7,100Z" transform="translate(-365.3 -71.487)" fill="#f2f2f2"/>
    <path id="Path_2617" data-name="Path 2617" d="M543.5,172.3,511,204.046l.143,5.663,32.5-31.823Z" transform="translate(-365.3 -123.172)" fill="#f2f2f2"/>
    <path id="Path_2618" data-name="Path 2618" d="M50.8,52,26,80.425V98.647L63.352,52Z" transform="translate(-18.588 -37.173)" fill="#f2f2f2"/>
    <path id="Path_2619" data-name="Path 2619" d="M83.722,52,26,108.741v4.311L91.363,52Z" transform="translate(-18.588 -37.173)" fill="#f2f2f2"/>
    <path id="Path_2620" data-name="Path 2620" d="M718.3,52.5,693.5,80.925V99.147L730.852,52.5Z" transform="translate(-495.763 -37.531)" fill="#f2f2f2"/>
    <path id="Path_2621" data-name="Path 2621" d="M751.222,52.5,693.5,109.241v4.311L758.863,52.5Z" transform="translate(-495.763 -37.531)" fill="#f2f2f2"/>
    <path id="Path_2622" data-name="Path 2622" d="M308.274,412.48v2.583a5.594,5.594,0,0,1-5.594,5.594H293.2c-.285-.268-.55-.539-.821-.815a14.592,14.592,0,0,1-3.059-4.132c-1.075-2.392-1.007-5.081-.949-7.24,0-.208.014-.413.02-.624a8.309,8.309,0,0,1-15.28-2.261,8.117,8.117,0,0,1-.211-2.281,8.269,8.269,0,0,1,2.686-5.737l3.02,2.9-1.468-4.02a8.3,8.3,0,0,1,11.534,3.6q.134-3.088.305-6.164h-.034c-.174-.029-.348-.066-.516-.1l-.285-.074c-.157-.046-.314-.091-.465-.143l-.285-.1c-.154-.057-.308-.125-.456-.194a2.584,2.584,0,0,1-.24-.108c-.185-.088-.362-.182-.539-.285-.04-.023-.08-.043-.12-.068-.211-.128-.413-.265-.61-.411-.068-.046-.131-.1-.194-.151-.131-.1-.259-.208-.382-.314l-.217-.2c-.108-.1-.214-.208-.314-.314s-.143-.151-.211-.234-.191-.22-.285-.336l-.185-.24c-.1-.134-.188-.268-.285-.408-.046-.068-.094-.137-.137-.208-.123-.205-.237-.413-.342-.63-.04-.083-.074-.171-.111-.251-.066-.143-.128-.285-.185-.436-.04-.1-.071-.2-.108-.305s-.088-.268-.128-.411-.057-.214-.086-.325a.968.968,0,0,0-.043-.174h0a8.252,8.252,0,0,1,3.963-8.953l1.859,3.678-.054-4.454a8.309,8.309,0,0,1,9.754,4.214h0l.026.063c.04.077.074.151.111.231.066.148.131.285.188.451.029.068.057.131.083.2.074.208.137.416.2.63.02.071.037.145.054.217.048.2.088.393.123.593a.2.2,0,0,0,.023.111c.034.234.057.476.074.719v.185c0,.251.014.5,0,.753a8.3,8.3,0,0,1-7.379,7.861c-.285,4.87-.482,9.754-.607,14.6-.063,2.449-.046,4.462.75,6.236a9.882,9.882,0,0,0,1.642,2.424v-.468a8.309,8.309,0,0,1,8.688-7.915h.023l1.882,3.727-.043-3.422a8.317,8.317,0,0,1,4.71,3.345Z" transform="translate(-226.158 -331.127)" fill="#f2f2f2"/>
    <rect id="Rectangle_260" data-name="Rectangle 260" width="3.422" height="117.474" transform="translate(138.002 12.831)" opacity="0.03"/>
    <path id="Path_2623" data-name="Path 2623" d="M389.422,655.5a4.4,4.4,0,0,1-4.277,3.507H114.183a4.36,4.36,0,0,1-4.043-2.8c12.3-3.117,44.922-5.64,87.21-6.817q3.533-.1,7.154-.182h.448c.57-.014,1.169-.023,1.756-.04q3.846-.083,7.784-.157L215.4,649l3.108-.054,1.106-.017q3.276-.051,6.609-.091c7.04-.086,14.257-.137,21.6-.145h12.494l6.062.04c12.292.083,24.133.285,35.333.57l4.42.123q3.173.086,6.273.188C348.1,650.751,376.1,652.881,389.422,655.5Z" transform="translate(-109.816 -525.069)" fill="#3f3d56"/>
    <path id="Path_2624" data-name="Path 2624" d="M210.2,549.766h0a2.984,2.984,0,0,1-2.8,3.136H138.3a2.984,2.984,0,0,1-2.8-3.136h0a2.982,2.982,0,0,1,2.8-3.136h69.1A2.982,2.982,0,0,1,210.2,549.766Z" transform="translate(-127.945 -452.109)" fill="#3f3d56"/>
    <rect id="Rectangle_261" data-name="Rectangle 261" width="9.94" height="17.151" transform="translate(147.075 31.188)" fill="#3f3d56"/>
    <rect id="Rectangle_262" data-name="Rectangle 262" width="9.94" height="17.151" transform="translate(147.075 31.188)" opacity="0.1"/>
    <path id="Path_2625" data-name="Path 2625" d="M781.93,372.927a3.426,3.426,0,0,1,2.022-.285,2.566,2.566,0,0,1,1.2.257c.713.431.821,1.4.855,2.235a4.028,4.028,0,0,1-.627,2.851,3.569,3.569,0,0,1-2.121.944,5.746,5.746,0,0,0-1.594.4,7,7,0,0,0-1.386,1.064,7.384,7.384,0,0,1-3.373,1.756c-.816-1.645-1.026-3.222.248-4.636.7-.781,1.614-1.383,2.378-2.107A17.027,17.027,0,0,1,781.93,372.927Z" transform="translate(-585.995 -327.711)" fill="#a0616a"/>
    <path id="Path_2626" data-name="Path 2626" d="M631.5,634.463a2.68,2.68,0,0,0-.2,1.081c.08.855.927,1.394,1.711,1.751,1.049.482,2.372.835,3.285.125,1.015-.79.855-2.335,1.252-3.561.234-.716.673-1.346.961-2.042.79-1.908.374-4.077-.054-6.1l-.624-2.94a1.1,1.1,0,0,0-.285-.624,4.382,4.382,0,0,0-3.159-.165c-.875.607-.664,2.657-.8,3.621A51.173,51.173,0,0,1,631.5,634.463Z" transform="translate(-482.376 -505.824)" fill="#575a89"/>
    <path id="Path_2627" data-name="Path 2627" d="M601.708,634.463a2.731,2.731,0,0,1,.2,1.081c-.08.855-.927,1.394-1.711,1.751-1.049.482-2.375.835-3.285.125-1.015-.79-.855-2.335-1.255-3.561-.231-.716-.67-1.346-.958-2.042-.793-1.908-.374-4.077.054-6.1l.624-2.94a1.1,1.1,0,0,1,.285-.624,4.382,4.382,0,0,1,3.159-.165c.872.607.661,2.657.8,3.621A51.175,51.175,0,0,0,601.708,634.463Z" transform="translate(-455.894 -505.824)" fill="#575a89"/>
    <path id="Path_2628" data-name="Path 2628" d="M637.109,346.544a1.332,1.332,0,0,1,.334.59c.1.536-.4,1.009-.907,1.2a8.078,8.078,0,0,0-1.543.533,2.677,2.677,0,0,0-.975,1.426,6.254,6.254,0,0,0,2.683,7.488c1.773.915,3.883.773,5.874.607a2.253,2.253,0,0,0,.813-.171,2.069,2.069,0,0,0,.661-.6,11.665,11.665,0,0,0,2.133-10.162,1.141,1.141,0,0,0-.168-.408c-.513-.7-1.751.163-2.478-.316a1.479,1.479,0,0,1-.482-.684,14.626,14.626,0,0,1-1.024-3.664,24.267,24.267,0,0,0-3.539,1.223c-1.1.57-1.16.046-1.979.978C637.392,344.833,636.382,345.706,637.109,346.544Z" transform="translate(-484.07 -306.093)" fill="#a0616a"/>
    <path id="Path_2629" data-name="Path 2629" d="M637.109,346.544a1.332,1.332,0,0,1,.334.59c.1.536-.4,1.009-.907,1.2a8.078,8.078,0,0,0-1.543.533,2.677,2.677,0,0,0-.975,1.426,6.254,6.254,0,0,0,2.683,7.488c1.773.915,3.883.773,5.874.607a2.253,2.253,0,0,0,.813-.171,2.069,2.069,0,0,0,.661-.6,11.665,11.665,0,0,0,2.133-10.162,1.141,1.141,0,0,0-.168-.408c-.513-.7-1.751.163-2.478-.316a1.479,1.479,0,0,1-.482-.684,14.626,14.626,0,0,1-1.024-3.664,24.267,24.267,0,0,0-3.539,1.223c-1.1.57-1.16.046-1.979.978C637.392,344.833,636.382,345.706,637.109,346.544Z" transform="translate(-484.07 -306.093)" opacity="0.1"/>
    <path id="Path_2630" data-name="Path 2630" d="M596.821,470q.285,2.754.4,5.52a15.007,15.007,0,0,1-.422,5.272c-.285.947-.773,1.831-1.026,2.789a13.465,13.465,0,0,0-.271,3.473,8.083,8.083,0,0,0,.188,2,17.977,17.977,0,0,0,.662,1.711,13.681,13.681,0,0,1,.328,6.478c-.5,4.077-1.277,8.115-2.056,12.147l-1.406,7.311a23.633,23.633,0,0,0,4.756,1.394c1.009.182,2.327.148,2.729-.8a2.68,2.68,0,0,0,.06-1.337,13.643,13.643,0,0,1,.69-6.016c.553-1.565,1.389-3.028,1.813-4.633a16.6,16.6,0,0,0,.439-3.085q.2-2.737.165-5.483c-.028-2.469-.185-5,.553-7.356.967-3.085,3.442-5.834,3.154-9.056.06,3.55.123,7.1-.117,10.644a35.141,35.141,0,0,0-.171,4.414c.12,2.158.744,4.337.285,6.453a23.776,23.776,0,0,0-.641,2.566c-.148,1.374.371,2.817-.088,4.123-.4,1.141-1.5,2.042-1.466,3.242a2.483,2.483,0,0,0,1.537,2.044,7.263,7.263,0,0,0,2.629.5c.969.063,2.144.023,2.632-.818.6-1.024-.348-2.233-.525-3.4a5.682,5.682,0,0,1,1.006-3.359,43.233,43.233,0,0,0,5.052-19.212c.048-2.027-.046-4.057-.034-6.085a58.808,58.808,0,0,1,1.711-13.8C611.756,467.336,604.024,467.407,596.821,470Z" transform="translate(-455.155 -395.548)" fill="#3c354c"/>
    <circle id="Ellipse_60" data-name="Ellipse 60" cx="5.751" cy="5.751" r="5.751" transform="translate(148.147 28.946)" fill="#a0616a"/>
    <path id="Path_2631" data-name="Path 2631" d="M638.086,358.79a6.5,6.5,0,0,1-2.543,2.823,2.771,2.771,0,0,1-3.476-.636c-.545-.807-.556-2.019-1.4-2.492a1.687,1.687,0,0,0-2.053.593,4.421,4.421,0,0,0-.7,2.19,45.162,45.162,0,0,0-.2,5.794c.12,9.424.872,18.839.753,28.265a36.14,36.14,0,0,1-.254,4.408,57.779,57.779,0,0,1,10.55-1.979c1.731-.106,3.473-.057,5.189-.285a32.063,32.063,0,0,0,3.5-.741.779.779,0,0,0,.413-.2A.764.764,0,0,0,648,396.1c.354-3.333-.813-6.615-1.329-9.925-.485-3.088-.4-6.242-.815-9.341-.57-4.348-2.141-8.582-2.107-12.971a21.482,21.482,0,0,0-.12-4.77c-.285-1.283-1.275-2.994-2.709-3.245C639.334,355.568,638.684,357.709,638.086,358.79Z" transform="translate(-479.797 -315.707)" fill="#6c63ff"/>
    <path id="Path_2632" data-name="Path 2632" d="M646.267,359.939c-1.759,3.5-3.547,7.085-4.12,10.969-.516,3.5-.02,7.086-.445,10.6-.545,4.511-2.586,9.1-1.2,13.43.308.967.778,1.873,1.106,2.831,1.426,4.209,0,8.9.921,13.25a.73.73,0,0,0,.328.553c.242.106.508-.071.761-.151,1.1-.351,1.853,1.044,2.723,1.8a2.928,2.928,0,0,0,3.193.388c1.628-.838,2.062-2.925,2.281-4.742q1.64-13.03,2-26.184a31.042,31.042,0,0,0-.245-5.959c-.4-2.387-1.309-4.656-1.8-7.023-.787-3.809-.459-7.747-.245-11.63.06-1.141-.259-4.425-2.2-3.353C647.839,355.542,646.989,358.5,646.267,359.939Z" transform="translate(-488.617 -314.766)" fill="#575a89"/>
    <path id="Path_2633" data-name="Path 2633" d="M620.52,377a12.511,12.511,0,0,1-.419,3.69,21.086,21.086,0,0,1-1.711,3.339,19.98,19.98,0,0,0-2.013,8.868,91.079,91.079,0,0,0,.522,9.156A116.652,116.652,0,0,1,617.141,416a10.191,10.191,0,0,1,5.925-.248c1.141.285,2.5.753,3.393-.023a3.134,3.134,0,0,0,.741-2.338q.453-12.857.285-25.724a27.113,27.113,0,0,1,.094-3.37,23.925,23.925,0,0,0,.285-2.6,13.371,13.371,0,0,0-.661-3.6L624.2,367.427a4.826,4.826,0,0,0-.9-1.973c-.488-.547-1.962-1.272-2.535-.57-.5.616-.128,2.726-.137,3.484Z" transform="translate(-471.703 -321.977)" opacity="0.1"/>
    <path id="Path_2634" data-name="Path 2634" d="M619.153,376.326a12.532,12.532,0,0,1-.422,3.692,20.972,20.972,0,0,1-1.711,3.339,19.979,19.979,0,0,0-2.013,8.868,91.1,91.1,0,0,0,.522,9.156,116.6,116.6,0,0,1,.242,13.94,10.225,10.225,0,0,1,5.928-.248c1.141.3,2.5.756,3.39-.02a3.15,3.15,0,0,0,.744-2.341q.45-12.856.285-25.724a27.079,27.079,0,0,1,.091-3.367,25.1,25.1,0,0,0,.285-2.6,13.346,13.346,0,0,0-.659-3.6l-3.008-10.661a4.879,4.879,0,0,0-.9-1.976c-.488-.55-1.962-1.269-2.535-.556-.493.613-.125,2.726-.137,3.481Z" transform="translate(-470.724 -321.498)" fill="#575a89"/>
    <path id="Path_2635" data-name="Path 2635" d="M605.238,361.585a4.47,4.47,0,0,0-3.356,2.934c-.607,1.437-.784,3.017-1.246,4.505-.807,2.58-2.481,4.907-2.752,7.6-.251,2.538.787,5.112.285,7.61a15.391,15.391,0,0,1-.6,1.97,62.6,62.6,0,0,0-2.076,8.745l-.821,4.388c-.57,3.094-1.161,6.273-.63,9.372a2.928,2.928,0,0,1,3.707.237c.285.265.522.6.9.659.641.091,1.035-.673,1.2-1.3a38.888,38.888,0,0,0,1.212-6.812,17.684,17.684,0,0,1,.528-3.707c.234-.75.57-1.454.827-2.2a30.043,30.043,0,0,0,.73-5.486c.2-1.588.639-3.136.887-4.716a39.474,39.474,0,0,0,.339-5.805l.111-11.169c.014-1.446.111-3.079,1.212-4.015.57-.476,2.05-.915,1.913-1.811C607.471,361.745,605.877,361.522,605.238,361.585Z" transform="translate(-455.594 -319.819)" fill="#ff6584"/>
    <path id="Path_2636" data-name="Path 2636" d="M666.05,351.691c1.665-1.252,3.5-2.566,5.589-2.515a9.41,9.41,0,0,1,2.039.354l4.716,1.178a4.659,4.659,0,0,1-2.01,1.853,3.422,3.422,0,0,1,3.741,2.061c.659,1.728-.208,3.621-.975,5.306a22.085,22.085,0,0,0-2.389,9.1c0,1.605-1.109,3.193-1.217,4.8a9.412,9.412,0,0,0,.245,2.991,20.1,20.1,0,0,0,1.072,2.783c2.888,6.78,3.544,14.322,3.225,21.687h-6.438a2.852,2.852,0,0,0-1.052.134,5.7,5.7,0,0,0-1.069.733,2.831,2.831,0,0,1-2.11.439c-.687-3.136.4-6.324.935-9.478a46.84,46.84,0,0,0,.516-5.215q.225-4.151.228-8.317a18.752,18.752,0,0,0-.744-6.219c-.342-.981-.838-1.908-1.161-2.9a17.4,17.4,0,0,1-.6-3.037C667.872,362.133,666.768,356.986,666.05,351.691Z" transform="translate(-507.219 -310.955)" fill="#ff6584"/>
    <path id="Path_2637" data-name="Path 2637" d="M602.644,372.209a3.166,3.166,0,0,0-.841,1.56c-.536,1.409-1.674,2.492-2.421,3.8a15.106,15.106,0,0,0-1.061,2.515c-.989,2.823-2,5.768-1.642,8.736a3.078,3.078,0,0,0,.719,1.836c1.029,1.035,2.931.4,3.727-.83a9.458,9.458,0,0,0,1-4.214,74.43,74.43,0,0,1,1.711-8.126,31.648,31.648,0,0,0,.719-4.129c.043-.428.285-1.38-.12-1.651C604.18,371.533,602.88,372.049,602.644,372.209Z" transform="translate(-457.576 -327.035)" fill="#ff6584"/>
    <path id="Path_2638" data-name="Path 2638" d="M701.45,385.537c.71.855,1.574,1.759,2.675,1.731a3.793,3.793,0,0,0,1.542-.516,74.058,74.058,0,0,1,11.5-4.582,5.349,5.349,0,0,0,1.252,6.039,39.637,39.637,0,0,0-9.552,3.821,8.2,8.2,0,0,0-1.759,1.223,11.636,11.636,0,0,1-1.1,1.118,5.236,5.236,0,0,1-3.156.73,4.614,4.614,0,0,1-3.627-1.109l-7.875-5.631a.841.841,0,0,1-.262-1.371l2.492-4.445c.57-1.007,1.212-2.672,2.549-2.851s1.828,1.257,2.461,2.2A41.761,41.761,0,0,0,701.45,385.537Z" transform="translate(-524.938 -332.759)" fill="#ff6584"/>
    <rect id="Rectangle_263" data-name="Rectangle 263" width="5.264" height="10.915" rx="2.632" transform="translate(137.847 44.633) rotate(-21.57)" fill="#3f3d56"/>
    <rect id="Rectangle_264" data-name="Rectangle 264" width="5.264" height="10.915" rx="2.632" transform="translate(137.847 44.633) rotate(-21.57)" opacity="0.1"/>
    <rect id="Rectangle_265" data-name="Rectangle 265" width="5.264" height="10.915" rx="2.632" transform="translate(137.455 44.826) rotate(-21.57)" fill="#3f3d56"/>
    <circle id="Ellipse_61" data-name="Ellipse 61" cx="0.681" cy="0.681" r="0.681" transform="translate(140.839 46.391)" fill="#6c63ff"/>
    <path id="Path_2639" data-name="Path 2639" d="M593.692,387.588c-.354-.439-.8-.8-1.106-1.272a4.876,4.876,0,0,1-.65-2.05,18.963,18.963,0,0,1-.185-2.381.693.693,0,0,1,.855-.684,5.611,5.611,0,0,1,2.931,1.768,7.6,7.6,0,0,1,1.734,3.9,19.356,19.356,0,0,1,.163,2.227l.1,3.054a10.375,10.375,0,0,1-2.541,0c-1.024-.285-.61-.105-.508-1.112A4.479,4.479,0,0,0,593.692,387.588Z" transform="translate(-454.104 -333.836)" fill="#a0616a"/>
    <path id="Path_2640" data-name="Path 2640" d="M597,409.946a2.74,2.74,0,0,1-1.206-.165,3.7,3.7,0,0,1-1.617-1.89,27.055,27.055,0,0,1-.251,4.9,13.439,13.439,0,0,0-.359,2.586,4.543,4.543,0,0,0,1.226,2.977,2.133,2.133,0,0,0,.753.55,2.188,2.188,0,0,0,1.882-.325,4.77,4.77,0,0,0,1.868-2.1,10.1,10.1,0,0,0,.57-4.018c.029-1.269.436-2.6.413-3.818C599.292,408.523,598.2,409.883,597,409.946Z" transform="translate(-455.403 -352.928)" fill="#ff6584"/>
    <path id="Path_2641" data-name="Path 2641" d="M624.5,304.54a7.878,7.878,0,0,0,6.558.365c-.334,1.457.431,2.911.827,4.354,1.044,3.8-.57,7.929-3.136,10.915a7.984,7.984,0,0,0,6.492-2.352,16.994,16.994,0,0,1-3.2,5.341c4.936-1.537,8.46-6.113,10.042-11.035,1.209-3.769,1.426-8-.222-11.6s-5.435-6.341-9.378-6.016a9.2,9.2,0,0,0-6.971,4.562,11.865,11.865,0,0,0-1.2,8.389Z" transform="translate(-477.176 -271.861)" fill="#3f3d56"/>
    <path id="Path_2642" data-name="Path 2642" d="M633.887,332.014a10.3,10.3,0,0,1-.362,6.207,10.689,10.689,0,0,0,.753-7.182c-.4-1.443-1.163-2.9-.83-4.354a7.872,7.872,0,0,1-6.558-.365l-.08,1.141a7.884,7.884,0,0,0,6.273.211C632.726,329.117,633.491,330.571,633.887,332.014Z" transform="translate(-479.168 -294.616)" opacity="0.1"/>
    <path id="Path_2643" data-name="Path 2643" d="M625.038,313.77a12.121,12.121,0,0,0-.744,7.479l.174-2.446A12.062,12.062,0,0,1,625.038,313.77Z" transform="translate(-477.167 -285.645)" opacity="0.1"/>
    <path id="Path_2644" data-name="Path 2644" d="M647.513,372.9a8.012,8.012,0,0,1-6.128,2.381c-.242.328-.493.644-.756.947a7.983,7.983,0,0,0,6.47-2.332C647.248,373.567,647.388,373.236,647.513,372.9Z" transform="translate(-489.047 -327.915)" opacity="0.1"/>
    <path id="Path_2645" data-name="Path 2645" d="M653.1,368.417a13.95,13.95,0,0,1-.938,1.163c4.645-1.446,8.041-5.586,9.74-10.171C660.175,363.41,657.138,366.937,653.1,368.417Z" transform="translate(-497.29 -318.271)" opacity="0.1"/>
    <path id="Path_2646" data-name="Path 2646" d="M803.773,227.605V215.63H797.5V341.658a3.136,3.136,0,1,0,6.273,0V233.878h15.4v8.882c-5.469.342-9.694,2.615-9.694,5.375,0,2.538,3.593,4.673,8.437,5.258a22.654,22.654,0,0,0,2.683.16c6.142,0,11.12-2.429,11.12-5.417,0-2.053-2.338-3.838-5.788-4.756a20.175,20.175,0,0,0-3.906-.619v-8.882h31.364v8.882a21.259,21.259,0,0,0-2.623.328c-4.14.79-7.071,2.752-7.071,5.047A2.8,2.8,0,0,0,844,249.4c1.172,2.378,5.566,4.149,10.809,4.149,6.142,0,11.12-2.429,11.12-5.417,0-2.76-4.226-5.033-9.694-5.375v-8.882h24.949v-6.273Zm59.877,20.529c0,2.375-3.958,4.3-8.839,4.3s-8.839-1.927-8.839-4.3a2.08,2.08,0,0,1,.111-.673,4.54,4.54,0,0,1,2.6-2.426,14.062,14.062,0,0,1,5.112-1.178h2.036C860.232,244.1,863.65,245.925,863.65,248.135Zm-38.558-3.707c2.6.756,4.343,2.133,4.343,3.707,0,2.375-3.958,4.3-8.839,4.3a17.64,17.64,0,0,1-1.845-.094c-3.992-.411-6.994-2.138-6.994-4.209,0-2.21,3.422-4.035,7.821-4.277h2.036a16.1,16.1,0,0,1,3.479.565Z" transform="translate(-601.189 -215.487)" fill="#3f3d56"/>
    <rect id="Rectangle_266" data-name="Rectangle 266" width="1.004" height="30.643" transform="translate(108.696 66.256)" fill="#575a89"/>
    <rect id="Rectangle_267" data-name="Rectangle 267" width="1.007" height="30.643" transform="translate(111.813 66.256)" fill="#575a89"/>
    <circle id="Ellipse_62" data-name="Ellipse 62" cx="1.716" cy="1.716" r="1.716" transform="translate(104.759 125.001)" fill="#575a89"/>
    <path id="Path_2647" data-name="Path 2647" d="M461.11,547.465s1.711-1.391,3.213-.91,5.417.964,6.1,3.422,0,29.5,0,29.5-3.319.855-4.228.428-.8-4.494-.8-4.494l-.265-23.982Z" transform="translate(-360.714 -451.984)" fill="#6c63ff"/>
    <path id="Path_2648" data-name="Path 2648" d="M461.11,547.465s1.711-1.391,3.213-.91,5.417.964,6.1,3.422,0,29.5,0,29.5-3.319.855-4.228.428-.8-4.494-.8-4.494l-.265-23.982Z" transform="translate(-360.714 -451.984)" opacity="0.1"/>
    <path id="Path_2649" data-name="Path 2649" d="M489.814,579.672l-7.205,1.6-.074-1.28-.048-25.226a7.681,7.681,0,0,0-3.017-6.093h0a18.141,18.141,0,0,1,6.592,1.24c.61.285,1.223.545,1.851.776a2.552,2.552,0,0,1,1.9,2.107c.088,1.574.388,17.165.5,22.842a14.368,14.368,0,0,1-.5,4.032Z" transform="translate(-373.839 -453.567)" fill="#6c63ff"/>
    <rect id="Rectangle_268" data-name="Rectangle 268" width="1.674" height="2.623" transform="translate(108.226 63.98)" fill="#535461"/>
    <rect id="Rectangle_269" data-name="Rectangle 269" width="1.674" height="2.623" transform="translate(108.226 63.98)" opacity="0.1"/>
    <rect id="Rectangle_270" data-name="Rectangle 270" width="1.674" height="2.623" transform="translate(111.371 64.397)" fill="#535461"/>
    <path id="Path_2650" data-name="Path 2650" d="M493.389,438.471h-1.674a1.662,1.662,0,0,0-1.471.978c-.023.051-.046.1-.068.16l-.368-.356-.767-.741-.47-.453S491.661,436.475,493.389,438.471Z" transform="translate(-380.344 -374.069)" fill="#535461"/>
    <circle id="Ellipse_63" data-name="Ellipse 63" cx="1.716" cy="1.716" r="1.716" transform="translate(112.058 126.21)" fill="#575a89"/>
    <circle id="Ellipse_64" data-name="Ellipse 64" cx="1.716" cy="1.716" r="1.716" transform="translate(94.331 123.866)" fill="#575a89"/>
    <path id="Path_2651" data-name="Path 2651" d="M443.495,548.69s-4.87,1.286-5.132,13.544-.322,13.544-.322,13.544.108,3.536,7.279,5.728h4.4l.681-28.165S449.6,549.064,443.495,548.69Z" transform="translate(-344.222 -453.582)" fill="#6c63ff"/>
    <path id="Path_2652" data-name="Path 2652" d="M455.441,572.176s-1.249-17.139,5.48-17.216l.63.616S455.654,553.44,455.441,572.176Z" transform="translate(-356.596 -458.064)" opacity="0.1"/>
    <circle id="Ellipse_65" data-name="Ellipse 65" cx="1.716" cy="1.716" r="1.716" transform="translate(100.154 127.707)" fill="#575a89"/>
    <path id="Path_2653" data-name="Path 2653" d="M494.839,440.245h-.017a1.662,1.662,0,0,0-1.471.978c-.023.051-.046.1-.068.16l-.368-.356a.518.518,0,0,1,0-.094.972.972,0,0,1,.365-.633,1.443,1.443,0,0,1,1.394-.251C494.757,440.089,494.856,440.154,494.839,440.245Z" transform="translate(-383.449 -375.86)" opacity="0.1"/>
  </g>
</svg>
