<svg id="img-chat" xmlns="http://www.w3.org/2000/svg" width="257.636" height="218.298" viewBox="0 0 257.636 218.298">
  <circle id="Ellipse_93" data-name="Ellipse 93" cx="4.088" cy="4.088" r="4.088" transform="translate(203.175 9.619)" fill="#f1f1f1"/>
  <circle id="Ellipse_94" data-name="Ellipse 94" cx="4.088" cy="4.088" r="4.088" transform="translate(179.073 167.802)" fill="#f1f1f1"/>
  <circle id="Ellipse_95" data-name="Ellipse 95" cx="4.088" cy="4.088" r="4.088" transform="translate(77.404 48.957)" fill="#f1f1f1"/>
  <ellipse id="Ellipse_96" data-name="Ellipse 96" cx="43.493" cy="6.372" rx="43.493" ry="6.372" transform="translate(0 205.555)" fill="#f1f1f1"/>
  <path id="Path_2834" data-name="Path 2834" d="M364.293,612.073l10.919-3.421a40.02,40.02,0,0,0-4.078-13.019l-10.919,3.421A24.548,24.548,0,0,1,364.293,612.073Z" transform="translate(-297.824 -446.14)" fill="#6c63ff"/>
  <circle id="Ellipse_97" data-name="Ellipse 97" cx="10.195" cy="10.195" r="10.195" transform="translate(30.03 63.593)" fill="#2f2e41"/>
  <path id="Path_2835" data-name="Path 2835" d="M100.439,724.608,98.5,732.919h4.709l1.939-9.419Z" transform="translate(-71.213 -523.071)" fill="#9f616a"/>
  <path id="Path_2836" data-name="Path 2836" d="M187.5,727.5v7.757l4.709.554V727.5Z" transform="translate(-135.557 -525.962)" fill="#9f616a"/>
  <path id="Path_2837" data-name="Path 2837" d="M235.5,464.779s.554,11.912,1.108,12.743,5.541,12.743,5.541,12.743l2.493-7.757s-3.878-6.372-3.324-9.973a41.4,41.4,0,0,0,.205-8.033Z" transform="translate(-207.659 -351.336)" fill="#9f616a"/>
  <circle id="Ellipse_98" data-name="Ellipse 98" cx="7.757" cy="7.757" r="7.757" transform="translate(35.875 69.118)" fill="#9f616a"/>
  <path id="Path_2838" data-name="Path 2838" d="M264.648,336.5s.277,11.081-1.662,12.743,11.081.277,11.081.277-2.77-7.757-.554-9.419S264.648,336.5,264.648,336.5Z" transform="translate(-227.388 -258.794)" fill="#9f616a"/>
  <path id="Path_2839" data-name="Path 2839" d="M253.709,374.224s-1.662-3.047-3.878-2.77-9.419.831-9.7,1.385a16.546,16.546,0,0,1-1.662,3.047c-.554.554-4.709,1.385-4.986,4.709s9.973,23.547,9.973,23.547-1.385,4.709-1.108,5.818-1.385,4.432-1.108,5.818-4.155,9.7-1.939,20.5v17.453s-7.48,30.2-5.264,32.412,9.7.831,11.081,0,7.2-42.662,7.2-42.662l2.77-14.128.277,31.027s-.554,26.041,1.385,26.872,9.419,1.108,9.973-.554c.432-1.3,2.549-35.789,3.46-50.908a56.488,56.488,0,0,0-1.22-15.562c-1.153-5.23-2.827-11.374-4.734-13.867-3.6-4.709-5.818-19.669-5.818-19.669l4.709-8.588s-2.77-2.77-4.432-2.77A22.828,22.828,0,0,1,253.709,374.224Z" transform="translate(-206.198 -284.051)" fill="#2f2e41"/>
  <path id="Path_2840" data-name="Path 2840" d="M234.318,397.5l-1.461.994s-1.032,17.844-.2,18.952,6.609.567,7.044-.409S234.318,397.5,234.318,397.5Z" transform="translate(-205.368 -302.895)" fill="#2f2e41"/>
  <path id="Path_2841" data-name="Path 2841" d="M321.5,451.4s.277,11.635,1.939,14.96,7.757,17.176,7.757,17.176-.354,15.245,2.732,11.5,1.146-12.609,1.146-12.609l-5.264-20.5s-2.77-9.142-2.493-11.912S321.5,451.4,321.5,451.4Z" transform="translate(-269.834 -340.173)" fill="#9f616a"/>
  <path id="Path_2842" data-name="Path 2842" d="M321.827,795.229s.277-.221,1.108.61,3.047,1.939,2.77,4.987-1.939,3.6-1.939,3.6V803.6h-.831v1.385s-1.385,4.432-7.757,1.662a14.37,14.37,0,0,1,0-3.6c.277-1.385.277-8.034,1.108-7.757s3.047.554,3.6,1.662S322.1,797.667,321.827,795.229Z" transform="translate(-265.175 -590.423)" fill="#2f2e41"/>
  <path id="Path_2843" data-name="Path 2843" d="M226.316,796.229s-.277-.221-1.108.61-3.047,1.939-2.77,4.986,1.939,3.6,1.939,3.6V804.6h.831v1.385s1.385,4.432,7.757,1.662a14.369,14.369,0,0,0,0-3.6c-.277-1.385-.277-8.034-1.108-7.757s-3.047.554-3.6,1.662S226.039,798.667,226.316,796.229Z" transform="translate(-198.198 -591.146)" fill="#2f2e41"/>
  <path id="Path_2844" data-name="Path 2844" d="M319.614,392.5l3.878.831s0,6.095,1.108,8.588,3.047,8.311,2.216,8.588-8.588,4.155-9.142,1.939S315.736,392.5,319.614,392.5Z" transform="translate(-266.563 -299.28)" fill="#2f2e41"/>
  <circle id="Ellipse_99" data-name="Ellipse 99" cx="10.195" cy="10.195" r="10.195" transform="translate(18.986 50.17)" fill="#2f2e41"/>
  <path id="Path_2845" data-name="Path 2845" d="M196.671,279.492a10.2,10.2,0,0,0,15.743-5.353,10.2,10.2,0,1,1-19.887-4.181,10.191,10.191,0,0,0,4.144,9.534Z" transform="translate(-176.284 -210.686)" fill="#2f2e41"/>
  <circle id="Ellipse_100" data-name="Ellipse 100" cx="7.476" cy="7.476" r="7.476" transform="translate(30.03 68.01)" fill="#2f2e41"/>
  <ellipse id="Ellipse_101" data-name="Ellipse 101" cx="6.626" cy="5.182" rx="6.626" ry="5.182" transform="translate(37.166 67.5)" fill="#2f2e41"/>
  <ellipse id="Ellipse_102" data-name="Ellipse 102" cx="1.258" cy="2.225" rx="1.258" ry="2.225" transform="translate(44.302 75.768)" fill="#a0616a"/>
  <rect id="Rectangle_325" data-name="Rectangle 325" width="147.933" height="118.845" transform="matrix(0.958, 0.288, -0.288, 0.958, 112.53, 6.002)" fill="#f1f1f1"/>
  <line id="Line_19" data-name="Line 19" x2="33.559" y2="13.565" transform="translate(169.31 39.308)" fill="none" stroke="#3f3d56" stroke-miterlimit="10" stroke-width="2"/>
  <path id="Path_2846" data-name="Path 2846" d="M610.563,141l.5-.235-1.158-2.474,2.553-.975-.2-.518-3.109,1.188Z" transform="translate(-440.401 -98.899)" fill="#3f3d56"/>
  <path id="Path_2847" data-name="Path 2847" d="M722.578,184.994l-.2-.518,2.552-.974-1.158-2.474.5-.235,1.41,3.014Z" transform="translate(-522.261 -130.708)" fill="#3f3d56"/>
  <circle id="Ellipse_103" data-name="Ellipse 103" cx="3.047" cy="3.047" r="3.047" transform="translate(183.042 43.043)" fill="#3f3d56"/>
  <line id="Line_20" data-name="Line 20" y1="18.824" x2="30.917" transform="translate(166.752 114.523)" fill="none" stroke="#3f3d56" stroke-miterlimit="10" stroke-width="2"/>
  <path id="Path_2848" data-name="Path 2848" d="M603.342,474.79l.112-.543-2.676-.548.742-2.63-.534-.15-.9,3.2Z" transform="translate(-433.843 -340.461)" fill="#3f3d56"/>
  <path id="Path_2849" data-name="Path 2849" d="M705.688,413.732l-.534-.15.742-2.629-2.677-.548.112-.543,3.26.668Z" transform="translate(-508.409 -296.319)" fill="#3f3d56"/>
  <circle id="Ellipse_104" data-name="Ellipse 104" cx="3.047" cy="3.047" r="3.047" transform="translate(179.164 120.888)" fill="#3f3d56"/>
  <line id="Line_21" data-name="Line 21" x2="0.011" y2="36.197" transform="translate(127.908 73.702)" fill="none" stroke="#3f3d56" stroke-miterlimit="10" stroke-width="2"/>
  <path id="Path_2850" data-name="Path 2850" d="M453.538,266.313l.406.378,1.859-2,1.861,2,.406-.378-2.267-2.436Z" transform="translate(-327.895 -190.774)" fill="#3f3d56"/>
  <path id="Path_2851" data-name="Path 2851" d="M453.573,389.092l.406-.378,1.86,2,1.86-2,.406.378-2.265,2.437Z" transform="translate(-327.921 -281.029)" fill="#3f3d56"/>
  <circle id="Ellipse_105" data-name="Ellipse 105" cx="3.047" cy="3.047" r="3.047" transform="translate(124.866 88.753)" fill="#3f3d56"/>
  <rect id="Rectangle_326" data-name="Rectangle 326" width="50.419" height="62.608" transform="translate(102.223)" fill="#3f3d56"/>
  <path id="Path_2852" data-name="Path 2852" d="M552.231,104.53H540.789a40.021,40.021,0,0,1,0-13.643h11.442a24.547,24.547,0,0,0,0,13.643Z" transform="translate(-427.951 -81.223)" fill="#ff6584"/>
  <path id="Path_2853" data-name="Path 2853" d="M606.379,129.508h11.442a40.021,40.021,0,0,0,0-13.643H606.379A24.548,24.548,0,0,1,606.379,129.508Z" transform="translate(-475.794 -99.281)" fill="#6c63ff"/>
  <path id="Path_2854" data-name="Path 2854" d="M567.379,211.508h11.442a40.021,40.021,0,0,0,0-13.643H567.379A24.548,24.548,0,0,1,567.379,211.508Z" transform="translate(-447.598 -158.565)" fill="#6c63ff"/>
  <rect id="Rectangle_327" data-name="Rectangle 327" width="50.419" height="62.608" transform="translate(207.217 59.561)" fill="#3f3d56"/>
  <rect id="Rectangle_328" data-name="Rectangle 328" width="36.014" height="1.662" transform="translate(214.419 72.858)" fill="#6c63ff"/>
  <rect id="Rectangle_329" data-name="Rectangle 329" width="36.014" height="1.662" transform="translate(214.419 78.676)" fill="#6c63ff"/>
  <rect id="Rectangle_330" data-name="Rectangle 330" width="36.014" height="1.662" transform="translate(214.419 84.493)" fill="#6c63ff"/>
  <rect id="Rectangle_331" data-name="Rectangle 331" width="36.014" height="1.662" transform="translate(214.419 90.311)" fill="#6c63ff"/>
  <rect id="Rectangle_332" data-name="Rectangle 332" width="36.014" height="1.662" transform="translate(214.419 96.129)" fill="#6c63ff"/>
  <rect id="Rectangle_333" data-name="Rectangle 333" width="18.838" height="6.649" transform="translate(223.007 102.223)" fill="#6c63ff"/>
  <rect id="Rectangle_334" data-name="Rectangle 334" width="50.419" height="62.608" transform="translate(106.656 123.831)" fill="#3f3d56"/>
  <rect id="Rectangle_335" data-name="Rectangle 335" width="36.014" height="1.662" transform="translate(113.941 158.683)" fill="#6c63ff"/>
  <rect id="Rectangle_336" data-name="Rectangle 336" width="36.014" height="1.662" transform="translate(113.941 164.501)" fill="#6c63ff"/>
  <rect id="Rectangle_337" data-name="Rectangle 337" width="36.014" height="1.662" transform="translate(113.941 170.318)" fill="#6c63ff"/>
  <rect id="Rectangle_338" data-name="Rectangle 338" width="36.014" height="1.662" transform="translate(113.941 176.136)" fill="#6c63ff"/>
  <path id="Path_2855" data-name="Path 2855" d="M554.731,547.837H543.289a40.017,40.017,0,0,1,0-13.643h11.442A24.548,24.548,0,0,0,554.731,547.837Z" transform="translate(-429.758 -401.721)" fill="#6c63ff" opacity="0.3"/>
  <rect id="Rectangle_339" data-name="Rectangle 339" width="21.054" height="1.385" transform="translate(129.731 133.751)" fill="#6c63ff" opacity="0.3"/>
  <rect id="Rectangle_340" data-name="Rectangle 340" width="21.054" height="1.385" transform="translate(129.731 138.737)" fill="#6c63ff" opacity="0.3"/>
  <rect id="Rectangle_341" data-name="Rectangle 341" width="21.054" height="1.385" transform="translate(129.731 143.724)" fill="#6c63ff" opacity="0.3"/>
  <rect id="Rectangle_342" data-name="Rectangle 342" width="21.054" height="1.385" transform="translate(129.731 148.71)" fill="#6c63ff" opacity="0.3"/>
</svg>
