<svg xmlns="http://www.w3.org/2000/svg" width="235" height="196.623" viewBox="0 0 235 196.623">
  <g id="img-chat" transform="translate(0 0)">
    <ellipse id="Ellipse_79" data-name="Ellipse 79" cx="63.049" cy="9.719" rx="63.049" ry="9.719" transform="translate(3.228 177.185)" fill="#3f3d56"/>
    <rect id="Rectangle_293" data-name="Rectangle 293" width="34.889" height="0.498" transform="translate(13.955 44.608)" fill="#f2f2f2"/>
    <rect id="Rectangle_294" data-name="Rectangle 294" width="0.498" height="4.61" transform="translate(23.425 40.122)" fill="#f2f2f2"/>
    <rect id="Rectangle_295" data-name="Rectangle 295" width="0.498" height="4.61" transform="translate(38.627 40.122)" fill="#f2f2f2"/>
    <rect id="Rectangle_296" data-name="Rectangle 296" width="34.889" height="0.498" transform="translate(107.656 30.901)" fill="#f2f2f2"/>
    <rect id="Rectangle_297" data-name="Rectangle 297" width="0.498" height="4.61" transform="translate(117.126 26.416)" fill="#f2f2f2"/>
    <rect id="Rectangle_298" data-name="Rectangle 298" width="0.498" height="4.61" transform="translate(132.328 26.416)" fill="#f2f2f2"/>
    <rect id="Rectangle_299" data-name="Rectangle 299" width="34.889" height="0.498" transform="translate(127.344 169.708)" fill="#f2f2f2"/>
    <rect id="Rectangle_300" data-name="Rectangle 300" width="0.498" height="4.61" transform="translate(136.813 165.223)" fill="#f2f2f2"/>
    <rect id="Rectangle_301" data-name="Rectangle 301" width="0.498" height="4.61" transform="translate(152.015 165.223)" fill="#f2f2f2"/>
    <rect id="Rectangle_302" data-name="Rectangle 302" width="34.889" height="0.498" transform="translate(197.37 147.28)" fill="#f2f2f2"/>
    <rect id="Rectangle_303" data-name="Rectangle 303" width="0.498" height="4.61" transform="translate(206.84 142.794)" fill="#f2f2f2"/>
    <rect id="Rectangle_304" data-name="Rectangle 304" width="0.498" height="4.61" transform="translate(222.041 142.794)" fill="#f2f2f2"/>
    <rect id="Rectangle_305" data-name="Rectangle 305" width="34.889" height="0.498" transform="translate(200.111 90.212)" fill="#f2f2f2"/>
    <rect id="Rectangle_306" data-name="Rectangle 306" width="0.498" height="4.61" transform="translate(209.581 85.726)" fill="#f2f2f2"/>
    <rect id="Rectangle_307" data-name="Rectangle 307" width="0.498" height="4.61" transform="translate(224.783 85.726)" fill="#f2f2f2"/>
    <rect id="Rectangle_308" data-name="Rectangle 308" width="34.889" height="0.498" transform="translate(76.257 95.695)" fill="#f2f2f2"/>
    <rect id="Rectangle_309" data-name="Rectangle 309" width="0.498" height="4.61" transform="translate(85.726 91.209)" fill="#f2f2f2"/>
    <rect id="Rectangle_310" data-name="Rectangle 310" width="0.498" height="4.61" transform="translate(100.928 91.209)" fill="#f2f2f2"/>
    <rect id="Rectangle_311" data-name="Rectangle 311" width="34.889" height="0.498" transform="translate(162.98 133.075)" fill="#f2f2f2"/>
    <rect id="Rectangle_312" data-name="Rectangle 312" width="0.498" height="4.61" transform="translate(172.45 128.59)" fill="#f2f2f2"/>
    <rect id="Rectangle_313" data-name="Rectangle 313" width="0.498" height="4.61" transform="translate(187.651 128.59)" fill="#f2f2f2"/>
    <rect id="Rectangle_314" data-name="Rectangle 314" width="34.889" height="0.498" transform="translate(113.887 117.375)" fill="#f2f2f2"/>
    <rect id="Rectangle_315" data-name="Rectangle 315" width="0.498" height="4.61" transform="translate(123.356 112.89)" fill="#f2f2f2"/>
    <rect id="Rectangle_316" data-name="Rectangle 316" width="0.498" height="4.61" transform="translate(138.558 112.89)" fill="#f2f2f2"/>
    <rect id="Rectangle_317" data-name="Rectangle 317" width="34.889" height="0.498" transform="translate(66.288 68.033)" fill="#f2f2f2"/>
    <rect id="Rectangle_318" data-name="Rectangle 318" width="0.498" height="4.61" transform="translate(75.758 63.547)" fill="#f2f2f2"/>
    <rect id="Rectangle_319" data-name="Rectangle 319" width="0.498" height="4.61" transform="translate(90.96 63.547)" fill="#f2f2f2"/>
    <rect id="Rectangle_320" data-name="Rectangle 320" width="34.889" height="0.498" transform="translate(0 122.36)" fill="#f2f2f2"/>
    <rect id="Rectangle_321" data-name="Rectangle 321" width="0.498" height="4.61" transform="translate(9.47 117.874)" fill="#f2f2f2"/>
    <rect id="Rectangle_322" data-name="Rectangle 322" width="0.498" height="4.61" transform="translate(24.671 117.874)" fill="#f2f2f2"/>
    <circle id="Ellipse_80" data-name="Ellipse 80" cx="53.579" cy="53.579" r="53.579" transform="translate(126.833)" fill="#3f3d56"/>
    <rect id="Rectangle_323" data-name="Rectangle 323" width="0.499" height="51.803" transform="translate(15.944 81.798) rotate(-13.486)" fill="#2f2e41"/>
    <path id="Path_2805" data-name="Path 2805" d="M400.69,521s10.217,4.237,6.978,6.729-9.968-2.99-9.719-3.738-1-2.492-1-2.492Z" transform="translate(-330.053 -404.995)" fill="#9f616a"/>
    <path id="Path_2806" data-name="Path 2806" d="M372.2,387l3.24,2.99.748,8.722,2.492,9.221s4.237,8.722,3.489,10.467a1.511,1.511,0,0,0,.748,2.243l-5.732,2.243s-6.23-6.978-6.23-8.473S372.2,387,372.2,387Z" transform="translate(-310.532 -304.389)" fill="#575a88"/>
    <path id="Path_2807" data-name="Path 2807" d="M372.2,387l3.24,2.99.748,8.722,2.492,9.221s4.237,8.722,3.489,10.467a1.511,1.511,0,0,0,.748,2.243l-5.732,2.243s-6.23-6.978-6.23-8.473S372.2,387,372.2,387Z" transform="translate(-310.532 -304.389)" opacity="0.1"/>
    <path id="Path_2808" data-name="Path 2808" d="M494.42,740.243s-1.246,5.732-1.5,6.23,4.735,2.243,4.735,2.243l5.981-4.237S501.149,739,501.149,738Z" transform="translate(-402.102 -567.918)" fill="#575a88"/>
    <path id="Path_2809" data-name="Path 2809" d="M315.306,523l1.744,1.994s36.135,4.486,36.882,11.463,5.981,39.873,2.99,40.87-10.716,4.735-10.716,2.741-4.984-29.406-3.987-34.39c0,0-43.112-5.483-44.109-11.713s1-8.971,1-8.971Z" transform="translate(-255.634 -406.497)" fill="#2f2e41"/>
    <path id="Path_2810" data-name="Path 2810" d="M315.306,523l1.744,1.994s36.135,4.486,36.882,11.463,5.981,39.873,2.99,40.87-10.716,4.735-10.716,2.741-4.984-29.406-3.987-34.39c0,0-43.112-5.483-44.109-11.713s1-8.971,1-8.971Z" transform="translate(-255.634 -406.497)" opacity="0.1"/>
    <path id="Path_2811" data-name="Path 2811" d="M488.662,759.764s-1-2.243-1.5-1.5-2.243,9.47-.5,9.47,17.694,3.987,19.936,3.489,6.479.249,5.981-2.243a3.5,3.5,0,0,0-2.99-2.741s-9.221-5.483-9.719-8.224-3.24-1.246-3.24-1.246v1.745S491.4,762.505,488.662,759.764Z" transform="translate(-396.842 -581.707)" fill="#2f2e41"/>
    <path id="Path_2812" data-name="Path 2812" d="M298.077,306.046s1.744,8.473-1.994,9.221S300.818,321,300.818,321l5.482,2.99L310.288,320s-3.613-7.352-.872-12.834S298.077,306.046,298.077,306.046Z" transform="translate(-253.606 -242.374)" fill="#9f616a"/>
    <path id="Path_2813" data-name="Path 2813" d="M310.288,320l-3.987,3.987L300.818,321s-8.473-4.984-4.735-5.732c2.4-.481,2.539-4.159,2.333-6.721a23.182,23.182,0,0,0-.339-2.5s14.08-4.361,11.339,1.121a9.559,9.559,0,0,0-.857,2.681C307.718,314.776,310.288,320,310.288,320Z" transform="translate(-253.606 -242.374)" fill="#9f616a"/>
    <path id="Path_2814" data-name="Path 2814" d="M283.452,712.992v5.732h9.47l.748-2.243-1-5.981Z" transform="translate(-212.814 -533.44)" fill="#575a88"/>
    <path id="Path_2815" data-name="Path 2815" d="M254.952,533.99s0,14.7,5.981,15.2,27.413,3.24,27.413,3.24,1.246,24.422,3.489,32.4.249,8.473,2.243,8.971,10.467-1.246,10.217-2.99-1.246-45.854-1.246-45.854,2.243-9.47-27.662-13.955Z" transform="translate(-223.44 -412.503)" fill="#2f2e41"/>
    <path id="Path_2816" data-name="Path 2816" d="M404.969,779.838s-1.5-3.24-1.744-2.243-3.24,9.719-.249,10.467,12.46,4.735,18.69,4.486,6.978-.5,6.978-.5,1.744-2.492-.5-3.987-11.463-10.217-11.962-11.214-4.237-1.744-4.237,0S406.713,782.081,404.969,779.838Z" transform="translate(-333.584 -596.299)" fill="#2f2e41"/>
    <path id="Path_2817" data-name="Path 2817" d="M318.291,307.168a9.559,9.559,0,0,0-.857,2.681c-1.241.75-2.071.558-3.628.558-2.31,0-3.242-2.953-4.735-4.486-.117-1.423-2.118.125-2.118.125S321.032,301.685,318.291,307.168Z" transform="translate(-262.481 -242.374)" opacity="0.1"/>
    <circle id="Ellipse_81" data-name="Ellipse 81" cx="8.224" cy="8.224" r="8.224" transform="translate(42.477 51.461)" fill="#9f616a"/>
    <path id="Path_2818" data-name="Path 2818" d="M279.051,359.047s-1.246,8.971-1.994,12.211-1.744,18.192-2.243,20.186-3.489,2.492-9.47,1.744a11.242,11.242,0,0,0-1.131-.085c-3.683-.117-7.9,1.261-11.8,2.343a29.655,29.655,0,0,1-6.26,1.231c-2.841.13-3.673-3.02-3.576-6.429.092-3.172.992-6.574,1.832-7.775,1.513-2.163.025-21.584.583-27.988v0a4.64,4.64,0,0,1,.414-1.914c1.5-1.994,11.214-6.978,12.3-6.776s10.374,6.028,10.374,6.028c2.243,0,2.171-2.432,2.171-2.432a8,8,0,0,0,4.558,3.678C277.8,353.814,279.051,359.047,279.051,359.047Z" transform="translate(-214.145 -273.445)" fill="#575a88"/>
    <path id="Path_2819" data-name="Path 2819" d="M315.181,528.643s16.053.511,13.241,2.418-15.272,3.652-15.522,1.16S315.181,528.643,315.181,528.643Z" transform="translate(-266.934 -410.733)" fill="#9f616a"/>
    <path id="Path_2820" data-name="Path 2820" d="M264.236,418.791c.052.957-2.522,3.113-3.354,4.57-.461.807-4.03-.257-8.443-2.228a86.567,86.567,0,0,1-9.836-5.2c.092-3.172.992-6.574,1.832-7.775,1.513-2.163.025-21.584.583-27.988v0a2.763,2.763,0,0,1,.414-.169h2.99c10.217,4.735-1.5,25.17-1.5,25.17s15.451,12.709,16.946,13.208A.448.448,0,0,1,264.236,418.791Z" transform="translate(-214.167 -299.133)" opacity="0.1"/>
    <path id="Path_2821" data-name="Path 2821" d="M223.392,374H220.4s-2.741.748-4.984,5.732-10.467,20.435-3.24,26.416,22.678,12.959,23.674,11.214,4.486-4.486,2.99-4.984S221.9,399.17,221.9,399.17,233.61,378.735,223.392,374Z" transform="translate(-189.139 -294.628)" fill="#575a88"/>
    <path id="Path_2822" data-name="Path 2822" d="M294.995,254.113s.361-5,4.813-2.959,4.162-3.578,2.816-4.57-1.3-1.238-6.224-.574-14.474,1.789-11.385,11.683,5.887,7.349,5.887,7.349-2.455-8.9.033-7.207l2.488,1.7,1.313-.278Z" transform="translate(-245.559 -198.255)" fill="#2f2e41"/>
    <path id="Path_2823" data-name="Path 2823" d="M138.267,590.644l-15.894-43.21L80.38,544.469,69.464,590.615l-.485-.115,11.014-46.558.211.015,42.526,3,.056.151,15.949,43.362Z" transform="translate(-51.789 -408.389)" fill="#2f2e41"/>
    <circle id="Ellipse_82" data-name="Ellipse 82" cx="7.787" cy="7.787" r="7.787" transform="translate(140.914 130.721)" fill="#6c63ff" opacity="0.4"/>
    <circle id="Ellipse_83" data-name="Ellipse 83" cx="5.463" cy="5.463" r="5.463" transform="translate(128.827 136.765)" fill="#6c63ff" opacity="0.4"/>
    <circle id="Ellipse_84" data-name="Ellipse 84" cx="5.463" cy="5.463" r="5.463" transform="translate(8.461 59.76)" fill="#6c63ff" opacity="0.4"/>
    <path id="Path_2824" data-name="Path 2824" d="M601.581,676.114l-.5-.01a115.583,115.583,0,0,1,1.769-16.519c2.155-11.683,5.739-19.356,10.652-22.805l.286.408C602.314,645.245,601.587,675.806,601.581,676.114Z" transform="translate(-483.313 -491.922)" fill="#2f2e41"/>
    <path id="Path_2825" data-name="Path 2825" d="M626.581,742.424l-.5-.01c.011-.552.322-13.56,5.443-17.156l.286.408C626.9,729.117,626.584,742.291,626.581,742.424Z" transform="translate(-502.083 -558.351)" fill="#2f2e41"/>
    <circle id="Ellipse_85" data-name="Ellipse 85" cx="2.492" cy="2.492" r="2.492" transform="translate(130.821 140.327)" fill="#6c63ff"/>
    <circle id="Ellipse_86" data-name="Ellipse 86" cx="2.492" cy="2.492" r="2.492" transform="translate(129.586 161.758)" fill="#6c63ff"/>
    <path id="Path_2826" data-name="Path 2826" d="M613.457,629.029a11.07,11.07,0,0,1-.752,5.667,10.088,10.088,0,0,1-1.7-10.833A11.07,11.07,0,0,1,613.457,629.029Z" transform="translate(-490.12 -482.224)" fill="#2f2e41"/>
    <path id="Path_2827" data-name="Path 2827" d="M638.9,662.974a11.07,11.07,0,0,1-5.711.247,10.088,10.088,0,0,1,10.372-3.558A11.07,11.07,0,0,1,638.9,662.974Z" transform="translate(-507.419 -508.904)" fill="#2f2e41"/>
    <path id="Path_2828" data-name="Path 2828" d="M644.417,742.283a7.759,7.759,0,0,1-4,.173,7.071,7.071,0,0,1,7.27-2.494A7.76,7.76,0,0,1,644.417,742.283Z" transform="translate(-512.843 -569.234)" fill="#2f2e41"/>
    <path id="Path_2829" data-name="Path 2829" d="M1.116,0H2.99V10.217H0v-9.1A1.116,1.116,0,0,1,1.116,0Z" transform="translate(41.699 48.951) rotate(-10.466)" fill="#6c63ff"/>
    <circle id="Ellipse_87" data-name="Ellipse 87" cx="3.738" cy="3.738" r="3.738" transform="translate(41.605 56.819)" fill="#6c63ff"/>
    <circle id="Ellipse_88" data-name="Ellipse 88" cx="2.243" cy="2.243" r="2.243" transform="translate(43.1 58.314)" fill="#f2f2f2"/>
    <circle id="Ellipse_89" data-name="Ellipse 89" cx="0.748" cy="0.748" r="0.748" transform="translate(44.596 59.809)" fill="#6c63ff"/>
    <path id="Path_2830" data-name="Path 2830" d="M622.322,134.956v22.428h-32.6l-6.023,7.227.688-7.227h-2.931V134.956Z" transform="translate(-436.551 -101.324)" fill="#6c63ff"/>
    <rect id="Rectangle_324" data-name="Rectangle 324" width="14.703" height="14.703" transform="translate(171.067 41.357)" opacity="0.1"/>
    <path id="Path_2831" data-name="Path 2831" d="M699.452,178.956h40.87v22.428h-2.931l.688,7.227-6.022-7.227h-32.6Z" transform="translate(-525.145 -134.359)" fill="#6c63ff"/>
    <ellipse id="Ellipse_90" data-name="Ellipse 90" cx="8.971" cy="0.875" rx="8.971" ry="0.875" transform="translate(138.421 65.153)" opacity="0.1"/>
    <ellipse id="Ellipse_91" data-name="Ellipse 91" cx="10.217" cy="0.997" rx="10.217" ry="0.997" transform="translate(202.716 76.744)" opacity="0.1"/>
  </g>
</svg>
