<svg width="250" height="220" viewBox="0 0 250 220" fill="none" xmlns="http://www.w3.org/2000/svg">
<rect x="39.3857" y="98.2679" width="121.529" height="121.529" rx="10" transform="rotate(-43 39.3857 98.2679)" fill="#334FEF" fill-opacity="0.3"/>
<path d="M98.1273 89.3516L89.6312 114H84.4945L95.1977 85.5625H98.4789L98.1273 89.3516ZM105.237 114L96.7211 89.3516L96.35 85.5625H99.6508L110.393 114H105.237ZM104.827 103.453V107.34H89.3578V103.453H104.827ZM124.238 114H118.164L118.203 110.113H124.238C125.996 110.113 127.467 109.729 128.652 108.961C129.85 108.193 130.749 107.092 131.348 105.66C131.96 104.228 132.266 102.522 132.266 100.543V99C132.266 97.4635 132.09 96.1029 131.738 94.918C131.4 93.7331 130.892 92.737 130.215 91.9297C129.551 91.1224 128.73 90.5104 127.754 90.0938C126.79 89.6771 125.677 89.4688 124.414 89.4688H118.047V85.5625H124.414C126.302 85.5625 128.027 85.8815 129.59 86.5195C131.152 87.1445 132.5 88.0495 133.633 89.2344C134.779 90.4193 135.658 91.8385 136.27 93.4922C136.882 95.1458 137.187 96.9948 137.187 99.0391V100.543C137.187 102.587 136.882 104.436 136.27 106.09C135.658 107.743 134.779 109.163 133.633 110.348C132.487 111.52 131.12 112.424 129.531 113.062C127.956 113.688 126.191 114 124.238 114ZM120.879 85.5625V114H115.977V85.5625H120.879ZM159.47 106.676C159.47 106.09 159.379 105.569 159.197 105.113C159.028 104.658 158.722 104.241 158.279 103.863C157.836 103.486 157.211 103.121 156.404 102.77C155.61 102.405 154.594 102.034 153.357 101.656C152.003 101.24 150.753 100.777 149.607 100.27C148.474 99.7487 147.485 99.1497 146.638 98.4727C145.792 97.7826 145.134 96.9948 144.666 96.1094C144.197 95.2109 143.962 94.1758 143.962 93.0039C143.962 91.8451 144.203 90.7904 144.685 89.8398C145.18 88.8893 145.877 88.069 146.775 87.3789C147.686 86.6758 148.761 86.1354 149.998 85.7578C151.235 85.3672 152.602 85.1719 154.099 85.1719C156.209 85.1719 158.025 85.5625 159.548 86.3438C161.085 87.125 162.263 88.1732 163.084 89.4883C163.917 90.8034 164.334 92.2552 164.334 93.8438H159.47C159.47 92.9062 159.268 92.0794 158.865 91.3633C158.474 90.6341 157.875 90.0612 157.068 89.6445C156.274 89.2279 155.265 89.0195 154.041 89.0195C152.882 89.0195 151.918 89.1953 151.15 89.5469C150.382 89.8984 149.809 90.3737 149.431 90.9727C149.054 91.5716 148.865 92.2487 148.865 93.0039C148.865 93.5378 148.989 94.026 149.236 94.4688C149.483 94.8984 149.861 95.3021 150.369 95.6797C150.877 96.0443 151.515 96.3893 152.283 96.7148C153.051 97.0404 153.956 97.3529 154.998 97.6523C156.573 98.1211 157.947 98.6419 159.119 99.2148C160.291 99.7747 161.267 100.413 162.048 101.129C162.83 101.845 163.416 102.659 163.806 103.57C164.197 104.469 164.392 105.491 164.392 106.637C164.392 107.835 164.151 108.915 163.67 109.879C163.188 110.829 162.498 111.643 161.599 112.32C160.714 112.984 159.646 113.499 158.396 113.863C157.159 114.215 155.779 114.391 154.255 114.391C152.888 114.391 151.541 114.208 150.212 113.844C148.897 113.479 147.699 112.926 146.619 112.184C145.538 111.428 144.679 110.491 144.041 109.371C143.403 108.238 143.084 106.917 143.084 105.406H147.986C147.986 106.331 148.142 107.118 148.455 107.77C148.78 108.421 149.229 108.954 149.802 109.371C150.375 109.775 151.039 110.074 151.795 110.27C152.563 110.465 153.383 110.562 154.255 110.562C155.401 110.562 156.358 110.4 157.127 110.074C157.908 109.749 158.494 109.293 158.884 108.707C159.275 108.121 159.47 107.444 159.47 106.676Z" fill="white"/>
<rect x="199.468" y="50.0979" width="150.486" height="16.7521" rx="8.37603" transform="rotate(140.499 199.468 50.0979)" fill="#334FEF" fill-opacity="0.5"/>
<rect x="172.396" y="59.8456" width="150.486" height="16.7521" rx="8.37603" transform="rotate(140.499 172.396 59.8456)" fill="#334FEF" fill-opacity="0.9"/>
</svg>
