<svg width="250" height="220" viewBox="0 0 250 220" fill="none" xmlns="http://www.w3.org/2000/svg">
<rect x="47.2842" y="82" width="40" height="40" rx="10" transform="rotate(45 47.2842 82)" fill="#334FEF" fill-opacity="0.9"/>
<rect x="204.284" y="84" width="40" height="40" rx="10" transform="rotate(45 204.284 84)" fill="#334FEF" fill-opacity="0.5"/>
<rect x="204.284" y="150" width="40" height="40" rx="10" transform="rotate(45 204.284 150)" fill="#334FEF" fill-opacity="0.5"/>
<rect x="204.284" y="18" width="40" height="40" rx="10" transform="rotate(45 204.284 18)" fill="#334FEF" fill-opacity="0.5"/>
<path d="M61.8252 62.3403C61.6976 62.1437 61.5333 61.998 61.3323 61.9034C61.1277 61.8033 60.8436 61.7781 60.48 61.8277C60.1219 61.8737 59.6397 62.0157 59.0336 62.2537C58.4965 62.4546 57.9853 62.6116 57.4999 62.7247C57.0165 62.8287 56.5682 62.8673 56.155 62.8405C55.7418 62.8136 55.3666 62.7077 55.0294 62.5229C54.6923 62.3381 54.4032 62.06 54.1623 61.6885C53.9285 61.3281 53.7862 60.9353 53.7356 60.5103C53.685 60.0853 53.7274 59.6542 53.863 59.2171C53.9985 58.78 54.2305 58.3541 54.5589 57.9393C54.8928 57.5209 55.322 57.1417 55.8463 56.8016C56.5892 56.3197 57.307 56.0326 57.9998 55.9402C58.6945 55.8388 59.322 55.909 59.8824 56.1508C60.4392 56.3871 60.8895 56.7702 61.2331 57.3L59.2586 58.5808C59.1062 58.3459 58.9044 58.1664 58.6532 58.0423C58.4039 57.9091 58.121 57.8559 57.8047 57.8826C57.4848 57.9039 57.1473 58.0296 56.7923 58.2599C56.4536 58.4796 56.2078 58.7167 56.0547 58.9711C55.9035 59.2166 55.8282 59.4595 55.8288 59.6997C55.8349 59.9363 55.9034 60.1557 56.0345 60.3578C56.1302 60.5052 56.2443 60.6213 56.3769 60.7061C56.5113 60.7818 56.6787 60.8245 56.8791 60.8343C57.0758 60.8386 57.3182 60.8055 57.6062 60.7351C57.8997 60.6611 58.2515 60.5455 58.6616 60.3881C59.431 60.0908 60.1314 59.8965 60.7628 59.8051C61.3961 59.7047 61.9572 59.7443 62.4461 59.9238C62.9315 60.0979 63.346 60.4498 63.6896 60.9796C63.9447 61.3729 64.0939 61.7883 64.1371 62.2258C64.1823 62.6544 64.1244 63.0915 63.9635 63.5374C63.7991 63.9777 63.5382 64.4069 63.1808 64.825C62.8288 65.2395 62.3798 65.6239 61.8336 65.9782C61.0306 66.499 60.2585 66.7981 59.5172 66.8754C58.7723 66.9473 58.1098 66.8532 57.5298 66.5931C56.9517 66.324 56.505 65.9463 56.1897 65.4602L58.0987 64.222C58.3579 64.5738 58.6485 64.8004 58.9705 64.902C59.2943 64.9946 59.6247 65.0014 59.9616 64.9226C60.3004 64.8348 60.6172 64.6952 60.9122 64.5039C61.2672 64.2736 61.5348 64.0341 61.7149 63.7853C61.8914 63.5311 61.9894 63.2814 62.0087 63.036C62.0245 62.7852 61.9633 62.5533 61.8252 62.3403ZM61.8385 47.863L70.0012 60.4475L68.0349 61.723L59.8722 49.1385L61.8385 47.863ZM66.5695 55.9106L65.9252 56.3169C65.5338 55.7016 65.2518 55.0814 65.0791 54.4562C64.9118 53.8275 64.8544 53.2245 64.9068 52.6473C64.9612 52.0611 65.134 51.5261 65.4254 51.0422C65.7133 50.5528 66.1167 50.1398 66.6356 49.8033C67.0725 49.5198 67.5048 49.3248 67.9323 49.2183C68.3653 49.1081 68.7969 49.1036 69.2272 49.2048C69.654 49.3004 70.0711 49.5188 70.4785 49.8598C70.8879 50.1918 71.2892 50.6609 71.6824 51.2672L75.3759 56.9613L73.3932 58.2474L69.6891 52.5369C69.4127 52.1108 69.1303 51.8129 68.8417 51.6432C68.5585 51.4698 68.2641 51.4047 67.9584 51.4478C67.6491 51.4855 67.3252 51.6141 66.9865 51.8338C66.6315 52.0641 66.3635 52.3388 66.1825 52.658C66.007 52.9736 65.9088 53.3127 65.888 53.6754C65.8672 54.0381 65.9148 54.4107 66.031 54.7932C66.1527 55.1722 66.3322 55.5446 66.5695 55.9106ZM82.2263 49.992L79.4841 45.7644C79.2786 45.4476 79.0441 45.2117 78.7806 45.0567C78.5171 44.9017 78.2272 44.8376 77.9108 44.8643C77.5999 44.8875 77.2697 45.0124 76.9201 45.2392C76.5979 45.4482 76.3547 45.6835 76.1907 45.9451C76.0267 46.2067 75.9394 46.4728 75.9288 46.7436C75.9181 47.0143 75.989 47.2671 76.1413 47.502L74.175 48.7774C73.9483 48.4278 73.8133 48.0343 73.77 47.5967C73.7268 47.1592 73.783 46.7075 73.9388 46.2418C74.0945 45.776 74.3485 45.3242 74.7007 44.8862C75.053 44.4482 75.5076 44.0485 76.0648 43.6871C76.7311 43.2549 77.3936 42.9843 78.0523 42.8752C78.7165 42.7625 79.3431 42.8372 79.9321 43.0993C80.523 43.3523 81.0381 43.8175 81.4774 44.4947L84.0336 48.4356C84.2958 48.8398 84.5587 49.1853 84.8223 49.4721C85.0879 49.7499 85.3515 49.9709 85.6131 50.1349L85.6981 50.266L83.6744 51.5786C83.4434 51.4258 83.1943 51.2033 82.9271 50.911C82.6618 50.6097 82.4282 50.3034 82.2263 49.992ZM80.1694 46.1929L80.9776 47.403L79.5602 48.3224C79.1943 48.5598 78.8951 48.8043 78.6626 49.056C78.4265 49.3022 78.2581 49.5511 78.1575 49.8027C78.0568 50.0542 78.0202 50.303 78.0478 50.5489C78.0754 50.7948 78.1654 51.0352 78.3178 51.2701C78.4701 51.505 78.6647 51.6853 78.9015 51.8111C79.1347 51.9314 79.3905 51.9788 79.6689 51.9534C79.9528 51.9245 80.245 51.8126 80.5454 51.6178C80.9496 51.3556 81.2487 51.0451 81.4428 50.6864C81.6389 50.3187 81.7464 49.958 81.7653 49.6043C81.7806 49.2451 81.7229 48.9528 81.5921 48.7272L82.7998 49.1893C82.8795 49.4558 82.9234 49.7688 82.9315 50.1282C82.9396 50.4877 82.8915 50.8681 82.7871 51.2695C82.6847 51.6618 82.5038 52.0469 82.2444 52.4247C81.9905 52.7989 81.6341 53.1348 81.1753 53.4324C80.5964 53.8079 80.0058 54.028 79.4036 54.0927C78.798 54.1519 78.2392 54.0681 77.7274 53.8414C77.2121 53.6091 76.7914 53.2418 76.4655 52.7393C76.1608 52.2695 75.9789 51.7977 75.9199 51.3239C75.8628 50.841 75.9265 50.3651 76.1112 49.8961C76.3013 49.4236 76.6069 48.9615 77.0279 48.5099C77.4454 48.0529 77.9764 47.6154 78.6209 47.1973L80.1694 46.1929ZM85.761 40.0285L90.4163 47.2056L88.4418 48.4863L82.6917 39.6215L84.5761 38.3992L85.761 40.0285ZM87.3409 36.5243L88.5149 38.3702C88.3806 38.4263 88.2389 38.4949 88.0898 38.5761C87.9461 38.6538 87.8061 38.7369 87.6695 38.8255C87.3309 39.0451 87.0651 39.2874 86.8721 39.5522C86.6756 39.8116 86.5485 40.088 86.4906 40.3817C86.4346 40.6663 86.4417 40.9643 86.5118 41.2758C86.582 41.5873 86.7098 41.904 86.8953 42.226L86.466 42.551C86.1046 41.9939 85.8244 41.4423 85.6254 40.8963C85.4265 40.3502 85.3193 39.8261 85.3039 39.3239C85.2941 38.8181 85.3902 38.3561 85.5923 37.9379C85.7998 37.5162 86.1248 37.1618 86.5672 36.8748C86.6874 36.7969 86.8228 36.7246 86.9736 36.6578C87.1297 36.5876 87.2522 36.5431 87.3409 36.5243ZM99.2226 41.7263C98.5672 42.1514 97.9054 42.4293 97.2374 42.56C96.5714 42.6816 95.9269 42.669 95.3039 42.5221C94.6864 42.3716 94.1093 42.098 93.5725 41.7012C93.0358 41.3044 92.5708 40.8029 92.1775 40.1966L91.965 39.8688C91.515 39.1752 91.2086 38.4815 91.0458 37.7878C90.883 37.0941 90.8525 36.431 90.9544 35.7985C91.0527 35.1605 91.2786 34.5755 91.632 34.0436C91.9854 33.5118 92.4488 33.0598 93.0224 32.6878C93.6559 32.2768 94.2794 32.0238 94.8928 31.9285C95.5062 31.8333 96.0943 31.8787 96.6572 32.0645C97.222 32.2414 97.7527 32.5451 98.2492 32.9757C98.7513 33.4028 99.2096 33.9359 99.6241 34.5749L100.171 35.4188L93.3221 39.8615L92.4027 38.4442L97.3022 35.2662L97.2012 35.1105C96.96 34.7626 96.6729 34.4755 96.3398 34.2492C96.0123 34.0193 95.6554 33.8938 95.2692 33.8727C94.883 33.8516 94.4715 33.9828 94.0345 34.2662C93.7068 34.4788 93.4606 34.7393 93.296 35.0478C93.1333 35.3474 93.0524 35.6831 93.0531 36.0551C93.0538 36.4271 93.1282 36.829 93.2763 37.2606C93.4263 37.6833 93.6501 38.124 93.9477 38.5828L94.1602 38.9105C94.4118 39.2983 94.6975 39.6251 95.0174 39.891C95.3392 40.1479 95.6836 40.3319 96.0506 40.4431C96.4176 40.5542 96.7946 40.5851 97.1817 40.5358C97.5652 40.4811 97.9454 40.3315 98.3223 40.087C98.7975 39.7788 99.1588 39.4086 99.4062 38.9765C99.6536 38.5444 99.8005 38.0651 99.8468 37.5383L101.541 37.8712C101.531 38.2737 101.456 38.7026 101.316 39.1577C101.173 39.6073 100.932 40.0548 100.592 40.5002C100.258 40.942 99.8016 41.3507 99.2226 41.7263Z" fill="white"/>
<path d="M59.8607 84.3547C59.2946 84.9595 59.326 85.9088 59.9309 86.4749C60.5357 87.0409 61.4849 87.0095 62.051 86.4047L59.8607 84.3547ZM162.087 50.0335C162.658 49.4331 162.634 48.4837 162.034 47.9129L152.25 38.6111C151.649 38.0402 150.7 38.0642 150.129 38.6646C149.558 39.265 149.582 40.2145 150.183 40.7853L158.879 49.0536L150.611 57.7504C150.04 58.3508 150.064 59.3003 150.665 59.8711C151.265 60.4419 152.214 60.4179 152.785 59.8175L162.087 50.0335ZM66.7585 81.881C67.3738 81.3263 67.4229 80.3778 66.8682 79.7626C66.3135 79.1473 65.365 79.0981 64.7498 79.6529L66.7585 81.881ZM75.2318 71.1499C74.5623 71.6379 74.4153 72.5762 74.9033 73.2456C75.3913 73.915 76.3296 74.0621 76.999 73.5741L75.2318 71.1499ZM88.0523 66.4183C88.773 66.0098 89.0261 65.0944 88.6176 64.3737C88.2092 63.6529 87.2938 63.3998 86.573 63.8083L88.0523 66.4183ZM98.7885 57.9504C98.017 58.2521 97.6361 59.1221 97.9378 59.8937C98.2395 60.6652 99.1096 61.0461 99.8811 60.7444L98.7885 57.9504ZM112.771 56.8279C113.576 56.6318 114.07 55.8204 113.874 55.0155C113.678 54.2106 112.866 53.7171 112.061 53.9132L112.771 56.8279ZM125.905 51.086C125.088 51.2244 124.538 51.9987 124.677 52.8155C124.815 53.6323 125.589 54.1822 126.406 54.0438L125.905 51.086ZM140.213 52.0993C141.036 52.0052 141.627 51.2617 141.532 50.4386C141.438 49.6155 140.695 49.0246 139.872 49.1187L140.213 52.0993ZM153.915 47.8549C153.088 47.909 152.462 48.623 152.516 49.4497C152.57 50.2763 153.284 50.9026 154.111 50.8485L153.915 47.8549ZM60.9559 85.3797C62.051 86.4047 62.051 86.4048 62.0509 86.4048C62.0509 86.4048 62.0508 86.4049 62.0508 86.4049C62.0508 86.4049 62.0508 86.405 62.0508 86.4049C62.0508 86.4049 62.0509 86.4048 62.0511 86.4045C62.0516 86.4041 62.0525 86.4031 62.0538 86.4017C62.0564 86.399 62.0606 86.3945 62.0665 86.3882C62.0783 86.3757 62.0968 86.3563 62.1217 86.3301C62.1716 86.2777 62.2475 86.1985 62.3488 86.0942C62.5514 85.8855 62.8555 85.5763 63.2553 85.1806C64.0552 84.3891 65.2378 83.252 66.7585 81.881L64.7498 79.6529C63.1911 81.058 61.9746 82.2273 61.1451 83.0482C60.7304 83.4586 60.4122 83.7821 60.1963 84.0045C60.0883 84.1157 60.0059 84.2017 59.9498 84.2606C59.9217 84.2901 59.9002 84.3128 59.8853 84.3286C59.8778 84.3364 59.8721 84.3426 59.868 84.3469C59.8659 84.3491 59.8643 84.3509 59.8631 84.3522C59.8625 84.3528 59.862 84.3533 59.8616 84.3538C59.8614 84.354 59.8612 84.3542 59.861 84.3543C59.861 84.3544 59.8609 84.3545 59.8608 84.3545C59.8608 84.3546 59.8607 84.3547 60.9559 85.3797ZM76.999 73.5741C80.2776 71.184 83.9947 68.7179 88.0523 66.4183L86.573 63.8083C82.4006 66.1731 78.5872 68.7037 75.2318 71.1499L76.999 73.5741ZM99.8811 60.7444C101.899 59.9551 103.964 59.2412 106.068 58.6227L105.222 55.7446C103.029 56.3893 100.882 57.1319 98.7885 57.9504L99.8811 60.7444ZM106.068 58.6227C108.27 57.9752 110.513 57.3782 112.771 56.8279L112.061 53.9132C109.762 54.4734 107.474 55.0824 105.222 55.7446L106.068 58.6227ZM126.406 54.0438C131.251 53.2228 135.935 52.5884 140.213 52.0993L139.872 49.1187C135.55 49.6129 130.812 50.2545 125.905 51.086L126.406 54.0438ZM154.111 50.8485C156.277 50.7066 158.013 50.6193 159.206 50.5675C159.802 50.5415 160.262 50.5245 160.572 50.514C160.727 50.5087 160.844 50.5051 160.923 50.5028C160.962 50.5016 160.991 50.5008 161.01 50.5003C161.02 50.5 161.027 50.4998 161.032 50.4997C161.034 50.4996 161.036 50.4996 161.037 50.4996C161.037 50.4995 161.038 50.4995 161.038 50.4995C161.038 50.4995 161.038 50.4995 161.038 50.4995C161.038 50.4995 161.038 50.4995 161.038 50.4995C161.038 50.4995 161.038 50.4995 161 49C160.962 47.5005 160.962 47.5005 160.962 47.5005C160.962 47.5005 160.962 47.5005 160.962 47.5005C160.962 47.5005 160.961 47.5005 160.961 47.5005C160.961 47.5005 160.96 47.5005 160.959 47.5005C160.958 47.5006 160.956 47.5006 160.953 47.5007C160.947 47.5009 160.939 47.5011 160.928 47.5014C160.907 47.502 160.876 47.5028 160.834 47.5041C160.752 47.5065 160.63 47.5103 160.47 47.5157C160.151 47.5265 159.681 47.5439 159.075 47.5703C157.863 47.623 156.105 47.7115 153.915 47.8549L154.111 50.8485Z" fill="white"/>
<path d="M60.6068 143.714C60.2166 142.983 60.4926 142.074 61.2234 141.684C61.9541 141.294 62.8629 141.57 63.2531 142.301L60.6068 143.714ZM161.886 179.789C162.554 180.279 162.7 181.217 162.211 181.886L154.239 192.781C153.75 193.449 152.811 193.595 152.143 193.106C151.474 192.617 151.329 191.678 151.818 191.009L158.904 181.325L149.219 174.239C148.551 173.75 148.405 172.811 148.894 172.143C149.383 171.474 150.322 171.329 150.991 171.818L161.886 179.789ZM66.8675 148.141C67.331 148.828 67.15 149.76 66.4634 150.224C65.7767 150.687 64.8444 150.506 64.3809 149.82L66.8675 148.141ZM73.1604 161.064C72.6054 160.449 72.6539 159.5 73.2689 158.945C73.8838 158.39 74.8323 158.439 75.3874 159.054L73.1604 161.064ZM85.4401 168.481C86.094 168.99 86.212 169.932 85.7034 170.586C85.1949 171.24 84.2525 171.358 83.5985 170.849L85.4401 168.481ZM95.9113 178.311C95.1531 177.977 94.8093 177.092 95.1432 176.334C95.4772 175.576 96.3625 175.232 97.1206 175.566L95.9113 178.311ZM110.513 179.362C111.328 179.509 111.87 180.289 111.724 181.104C111.577 181.919 110.797 182.462 109.982 182.315L110.513 179.362ZM124.611 184.006C123.784 183.956 123.154 183.245 123.204 182.418C123.254 181.591 123.964 180.961 124.791 181.011L124.611 184.006ZM139.214 181.24C140.042 181.22 140.73 181.875 140.751 182.703C140.771 183.531 140.116 184.219 139.288 184.239L139.214 181.24ZM153.931 183.35C153.106 183.43 152.373 182.827 152.293 182.002C152.213 181.177 152.817 180.444 153.641 180.364L153.931 183.35ZM61.93 143.007C63.2531 142.301 63.2531 142.301 63.253 142.301C63.253 142.301 63.253 142.3 63.2529 142.3C63.2529 142.3 63.2529 142.3 63.2529 142.3C63.2529 142.3 63.253 142.3 63.2531 142.301C63.2534 142.301 63.2541 142.303 63.255 142.304C63.2569 142.308 63.26 142.314 63.2644 142.322C63.2731 142.338 63.2867 142.363 63.3052 142.397C63.3423 142.464 63.399 142.567 63.475 142.702C63.627 142.973 63.8562 143.373 64.1605 143.885C64.7692 144.909 65.6774 146.378 66.8675 148.141L64.3809 149.82C63.155 148.003 62.2161 146.485 61.5816 145.418C61.2643 144.884 61.023 144.463 60.8599 144.172C60.7783 144.027 60.7162 143.915 60.674 143.838C60.6528 143.799 60.6367 143.769 60.6255 143.749C60.6199 143.738 60.6155 143.73 60.6124 143.724C60.6108 143.721 60.6096 143.719 60.6087 143.717C60.6082 143.717 60.6078 143.716 60.6075 143.715C60.6074 143.715 60.6072 143.715 60.6071 143.715C60.6071 143.714 60.607 143.714 60.607 143.714C60.6069 143.714 60.6068 143.714 61.93 143.007ZM75.3874 159.054C78.2869 162.266 81.6538 165.537 85.4401 168.481L83.5985 170.849C79.6462 167.776 76.152 164.378 73.1604 161.064L75.3874 159.054ZM97.1206 175.566C99.1823 176.474 101.319 177.238 103.527 177.824L102.758 180.723C100.388 180.095 98.1045 179.277 95.9113 178.311L97.1206 175.566ZM103.527 177.824C105.803 178.427 108.142 178.936 110.513 179.362L109.982 182.315C107.54 181.876 105.122 181.35 102.758 180.723L103.527 177.824ZM124.791 181.011C129.827 181.313 134.728 181.35 139.214 181.24L139.288 184.239C134.734 184.351 129.746 184.314 124.611 184.006L124.791 181.011ZM153.641 180.364C155.869 180.148 157.657 179.936 158.885 179.778C159.499 179.699 159.973 179.633 160.293 179.588C160.452 179.565 160.573 179.547 160.653 179.535C160.693 179.529 160.723 179.525 160.743 179.522C160.753 179.52 160.76 179.519 160.765 179.519C160.767 179.518 160.768 179.518 160.769 179.518C160.77 179.518 160.77 179.518 160.77 179.518C160.77 179.518 160.77 179.518 160.77 179.518C160.77 179.518 160.77 179.518 160.77 179.518C160.77 179.518 160.77 179.518 161 181C161.23 182.482 161.23 182.482 161.23 182.482C161.229 182.482 161.229 182.482 161.229 182.482C161.229 182.482 161.229 182.482 161.229 182.482C161.228 182.483 161.227 182.483 161.227 182.483C161.225 182.483 161.223 182.483 161.22 182.484C161.214 182.485 161.205 182.486 161.194 182.488C161.171 182.491 161.138 182.496 161.095 182.503C161.009 182.515 160.882 182.534 160.716 182.558C160.384 182.605 159.896 182.672 159.268 182.753C158.012 182.915 156.193 183.131 153.931 183.35L153.641 180.364Z" fill="white"/>
<path d="M85.8324 111.304C85.0134 111.18 84.45 110.416 84.5742 109.597C84.6983 108.777 85.4629 108.214 86.282 108.338L85.8324 111.304ZM170 110.882C170.617 111.434 170.67 112.382 170.118 113L161.122 123.065C160.57 123.682 159.621 123.736 159.004 123.184C158.386 122.631 158.333 121.683 158.885 121.066L166.882 112.119L157.935 104.122C157.318 103.57 157.264 102.621 157.816 102.004C158.369 101.386 159.317 101.333 159.934 101.885L170 110.882ZM96.2184 109.593C97.0419 109.684 97.6358 110.425 97.5449 111.249C97.4541 112.072 96.713 112.666 95.8896 112.575L96.2184 109.593ZM116.077 114.213C115.25 114.171 114.613 113.467 114.654 112.64C114.695 111.812 115.4 111.175 116.227 111.216L116.077 114.213ZM136.914 111.525C137.743 111.517 138.421 112.181 138.43 113.01C138.438 113.838 137.773 114.517 136.945 114.525L136.914 111.525ZM158.374 113.985C157.547 114.017 156.85 113.372 156.818 112.544C156.786 111.716 157.431 111.019 158.259 110.987L158.374 113.985ZM86.0572 109.821C86.282 108.338 86.282 108.338 86.282 108.338C86.282 108.338 86.282 108.338 86.282 108.338C86.2821 108.338 86.2822 108.338 86.2824 108.338C86.2827 108.338 86.2833 108.338 86.2841 108.339C86.2858 108.339 86.2883 108.339 86.2919 108.34C86.2989 108.341 86.3097 108.342 86.3242 108.345C86.3531 108.349 86.3968 108.355 86.4548 108.364C86.5709 108.381 86.7444 108.406 86.9721 108.439C87.4274 108.504 88.0993 108.598 88.962 108.713C90.6874 108.943 93.1752 109.258 96.2184 109.593L95.8896 112.575C92.8208 112.237 90.3103 111.92 88.5653 111.687C87.6928 111.57 87.0115 111.475 86.5474 111.409C86.3154 111.376 86.1376 111.35 86.0174 111.332C85.9572 111.323 85.9115 111.316 85.8805 111.312C85.8651 111.309 85.8533 111.308 85.8453 111.306C85.8412 111.306 85.8382 111.305 85.836 111.305C85.8349 111.305 85.8341 111.305 85.8335 111.305C85.8332 111.305 85.833 111.304 85.8328 111.304C85.8327 111.304 85.8326 111.304 85.8326 111.304C85.8325 111.304 85.8324 111.304 86.0572 109.821ZM116.227 111.216C119.49 111.379 122.86 111.492 126.248 111.529L126.215 114.529C122.783 114.492 119.374 114.377 116.077 114.213L116.227 111.216ZM126.248 111.529C129.788 111.567 133.386 111.561 136.914 111.525L136.945 114.525C133.399 114.561 129.781 114.567 126.215 114.529L126.248 111.529ZM158.259 110.987C161.483 110.863 164.149 110.741 166.008 110.651C166.937 110.606 167.665 110.569 168.16 110.543C168.408 110.53 168.597 110.52 168.725 110.513C168.788 110.509 168.836 110.507 168.868 110.505C168.884 110.504 168.896 110.503 168.904 110.503C168.908 110.503 168.911 110.503 168.913 110.503C168.914 110.502 168.915 110.502 168.915 110.502C168.916 110.502 168.916 110.502 168.916 110.502C168.916 110.502 168.916 110.502 168.916 110.502C168.916 110.502 168.916 110.502 169 112C169.084 113.498 169.084 113.498 169.084 113.498C169.084 113.498 169.084 113.498 169.084 113.498C169.084 113.498 169.083 113.498 169.083 113.498C169.082 113.498 169.082 113.498 169.081 113.498C169.078 113.498 169.075 113.498 169.071 113.498C169.063 113.499 169.05 113.5 169.034 113.5C169.001 113.502 168.952 113.505 168.887 113.508C168.758 113.515 168.567 113.526 168.318 113.539C167.819 113.565 167.087 113.603 166.153 113.648C164.286 113.738 161.61 113.86 158.374 113.985L158.259 110.987Z" fill="white"/>
</svg>
