<svg width="250" height="220" viewBox="0 0 250 220" fill="none" xmlns="http://www.w3.org/2000/svg">
<rect x="204.284" y="84" width="40" height="40" rx="10" transform="rotate(45 204.284 84)" fill="#334FEF" fill-opacity="0.5"/>
<rect x="204.284" y="150" width="40" height="40" rx="10" transform="rotate(45 204.284 150)" fill="#334FEF" fill-opacity="0.5"/>
<rect x="204.284" y="18" width="40" height="40" rx="10" transform="rotate(45 204.284 18)" fill="#334FEF" fill-opacity="0.5"/>
<path d="M67.9278 54.4233C68.2501 54.2143 68.4988 53.9637 68.6741 53.6715C68.8512 53.3704 68.9446 53.0538 68.9542 52.7216C68.9692 52.3859 68.8875 52.0626 68.7091 51.7515L70.5689 50.5452C70.93 51.1258 71.099 51.7572 71.0759 52.4395C71.0529 53.1218 70.8614 53.7776 70.5013 54.4069C70.1377 55.0308 69.6282 55.5553 68.9728 55.9804C68.2955 56.4197 67.6312 56.6877 66.9799 56.7842C66.325 56.8753 65.6981 56.824 65.0992 56.6305C64.5003 56.437 63.9426 56.1275 63.4261 55.702C62.9151 55.273 62.4611 54.7527 62.0643 54.1409L61.8783 53.8542C61.4815 53.2424 61.1914 52.6158 61.0081 51.9742C60.8267 51.3236 60.7697 50.6855 60.8372 50.0597C60.9046 49.4339 61.1152 48.8434 61.4689 48.288C61.8191 47.7272 62.3301 47.2289 63.0019 46.7932C63.712 46.3326 64.4268 46.0707 65.1463 46.0075C65.8622 45.9389 66.5361 46.0566 67.1679 46.3607C67.8017 46.6558 68.3384 47.1303 68.778 47.7841L66.9181 48.9905C66.6892 48.6734 66.4159 48.4316 66.0984 48.265C65.7828 48.0895 65.4425 48.0076 65.0776 48.0192C64.7182 48.0274 64.3582 48.1483 63.9977 48.3822C63.599 48.6408 63.3217 48.9371 63.1658 49.271C63.0063 49.5994 62.9432 49.9508 62.9764 50.325C63.0061 50.6938 63.0998 51.0714 63.2574 51.4581C63.417 51.8357 63.6155 52.2075 63.8528 52.5734L64.0388 52.8602C64.2762 53.2261 64.5365 53.5617 64.8198 53.8668C65.1031 54.172 65.4071 54.4132 65.7317 54.5907C66.0582 54.7591 66.4057 54.8402 66.7742 54.834C67.1391 54.8224 67.5236 54.6855 67.9278 54.4233ZM71.8057 47.7524L71.6835 47.564C71.269 46.925 70.9774 46.2721 70.8089 45.6054C70.6367 44.9333 70.5944 44.2818 70.6818 43.6509C70.7711 43.0109 70.9971 42.4142 71.3598 41.8608C71.7244 41.2984 72.229 40.8081 72.8735 40.3901C73.5235 39.9685 74.1769 39.7076 74.8337 39.6075C75.4923 39.4985 76.1321 39.5336 76.7528 39.713C77.37 39.8869 77.9504 40.1894 78.4939 40.6206C79.0339 41.0464 79.5112 41.5788 79.9257 42.2178L80.0479 42.4063C80.4624 43.0453 80.754 43.6982 80.9226 44.3648C81.0911 45.0315 81.1308 45.6848 81.0414 46.3247C80.9486 46.9592 80.7226 47.5559 80.3634 48.1148C80.0007 48.6682 79.4971 49.154 78.8526 49.572C78.2026 49.9936 77.5482 50.259 76.8896 50.368C76.2328 50.4681 75.5958 50.4312 74.9786 50.2573C74.3579 50.0779 73.7775 49.7754 73.2375 49.3496C72.6975 48.9239 72.2202 48.3915 71.8057 47.7524ZM73.658 46.2833L73.7802 46.4717C74.0389 46.8704 74.3243 47.2207 74.6365 47.5226C74.9487 47.8245 75.279 48.0526 75.6274 48.2069C75.9758 48.3611 76.3361 48.4262 76.7084 48.4019C77.0807 48.3777 77.4553 48.2434 77.8322 47.999C78.1982 47.7616 78.4654 47.4796 78.6338 47.1531C78.8077 46.823 78.8953 46.4675 78.8964 46.0865C78.8976 45.7054 78.824 45.3109 78.6757 44.9027C78.5328 44.491 78.332 44.0857 78.0734 43.687L77.9512 43.4986C77.6961 43.1053 77.4115 42.7622 77.0973 42.4693C76.7851 42.1675 76.4503 41.9384 76.0929 41.7822C75.741 41.6225 75.3789 41.5547 75.0066 41.579C74.6362 41.5942 74.2653 41.7222 73.8939 41.9631C73.5225 42.204 73.2516 42.4923 73.0812 42.8278C72.9128 43.1544 72.8297 43.5109 72.8321 43.8973C72.8345 44.2838 72.9098 44.6811 73.0582 45.0893C73.203 45.492 73.4029 45.89 73.658 46.2833ZM79.472 31.0583L87.6347 43.6428L85.652 44.9288L77.4892 32.3444L79.472 31.0583ZM84.7555 27.6312L92.9182 40.2157L90.9355 41.5017L82.7728 28.9173L84.7555 27.6312ZM100.102 35.7886C99.4469 36.2138 98.7852 36.4917 98.1172 36.6223C97.4511 36.7439 96.8066 36.7313 96.1836 36.5844C95.5661 36.434 94.989 36.1604 94.4523 35.7636C93.9155 35.3668 93.4505 34.8652 93.0573 34.2589L92.8447 33.9312C92.3947 33.2375 92.0884 32.5439 91.9255 31.8502C91.7627 31.1565 91.7322 30.4934 91.8341 29.8608C91.9324 29.2228 92.1583 28.6379 92.5117 28.106C92.8651 27.5741 93.3286 27.1222 93.9021 26.7502C94.5357 26.3392 95.1592 26.0861 95.7725 25.9909C96.3859 25.8957 96.974 25.941 97.5369 26.1269C98.1017 26.3037 98.6324 26.6075 99.129 27.0381C99.631 27.4652 100.089 27.9982 100.504 28.6373L101.051 29.4812L94.2018 33.9239L93.2825 32.5065L98.1819 29.3286L98.0809 29.1729C97.8397 28.825 97.5526 28.5378 97.2196 28.3115C96.892 28.0817 96.5351 27.9562 96.1489 27.9351C95.7628 27.914 95.3512 28.0451 94.9142 28.3285C94.5865 28.5411 94.3403 28.8017 94.1757 29.1102C94.0131 29.4097 93.9321 29.7455 93.9328 30.1175C93.9336 30.4895 94.008 30.8913 94.156 31.323C94.306 31.7456 94.5298 32.1863 94.8274 32.6451L95.04 32.9729C95.2915 33.3607 95.5772 33.6875 95.8971 33.9534C96.2189 34.2102 96.5633 34.3942 96.9303 34.5054C97.2973 34.6166 97.6743 34.6475 98.0614 34.5982C98.4449 34.5434 98.8251 34.3938 99.202 34.1494C99.6772 33.8411 100.038 33.471 100.286 33.0389C100.533 32.6068 100.68 32.1274 100.727 31.6007L102.421 31.9335C102.41 32.3361 102.335 32.7649 102.196 33.22C102.053 33.6697 101.812 34.1172 101.472 34.5626C101.138 35.0044 100.681 35.4131 100.102 35.7886ZM108.798 27.9135C109.12 27.7044 109.369 27.4538 109.544 27.1617C109.721 26.8605 109.815 26.5439 109.824 26.2118C109.839 25.8761 109.758 25.5527 109.579 25.2417L111.439 24.0353C111.8 24.6159 111.969 25.2474 111.946 25.9297C111.923 26.612 111.731 27.2678 111.371 27.8971C111.008 28.5209 110.498 29.0454 109.843 29.4706C109.166 29.9099 108.501 30.1778 107.85 30.2744C107.195 30.3654 106.568 30.3142 105.969 30.1207C105.37 29.9271 104.813 29.6176 104.296 29.1922C103.785 28.7632 103.331 28.2428 102.934 27.6311L102.748 27.3443C102.352 26.7326 102.062 26.1059 101.878 25.4644C101.697 24.8138 101.64 24.1756 101.707 23.5499C101.775 22.9241 101.985 22.3335 102.339 21.7782C102.689 21.2174 103.2 20.7191 103.872 20.2833C104.582 19.8227 105.297 19.5609 106.016 19.4977C106.732 19.429 107.406 19.5468 108.038 19.8509C108.672 20.146 109.208 20.6204 109.648 21.2743L107.788 22.4806C107.559 22.1635 107.286 21.9217 106.968 21.7552C106.653 21.5797 106.313 21.4977 105.948 21.5094C105.588 21.5175 105.228 21.6385 104.868 21.8723C104.469 22.1309 104.192 22.4272 104.036 22.7611C103.876 23.0896 103.813 23.4409 103.847 23.8151C103.876 24.1839 103.97 24.5616 104.127 24.9482C104.287 25.3258 104.486 25.6976 104.723 26.0636L104.909 26.3503C105.146 26.7163 105.407 27.0518 105.69 27.357C105.973 27.6621 106.277 27.9034 106.602 28.0808C106.928 28.2493 107.276 28.3304 107.644 28.3242C108.009 28.3125 108.394 28.1756 108.798 27.9135ZM114.178 13.8315L115.113 15.2735L110.115 18.5152L109.18 17.0732L114.178 13.8315ZM109.214 13.9668L111.188 12.686L116.757 21.2723C116.935 21.5454 117.109 21.7309 117.281 21.8288C117.455 21.9176 117.629 21.9406 117.803 21.8976C117.977 21.8547 118.16 21.7712 118.351 21.6472C118.487 21.5586 118.613 21.4654 118.728 21.3675C118.843 21.2697 118.934 21.1877 118.999 21.1217L119.985 22.6239C119.854 22.7794 119.691 22.9471 119.497 23.127C119.309 23.3034 119.075 23.482 118.797 23.6627C118.343 23.9567 117.891 24.1379 117.438 24.2063C116.982 24.2692 116.538 24.1814 116.104 23.943C115.67 23.7046 115.256 23.2822 114.863 22.6759L109.214 13.9668Z" fill="white"/>
<path d="M163.322 184.08C164.144 183.973 164.724 183.221 164.617 182.4C164.511 181.578 163.758 180.998 162.937 181.105L163.322 184.08ZM62.6215 145.511C61.7991 145.611 61.2135 146.359 61.3135 147.181L62.9426 160.582C63.0426 161.405 63.7903 161.99 64.6127 161.89C65.4351 161.79 66.0207 161.043 65.9207 160.22L64.4726 148.308L76.3849 146.86C77.2073 146.76 77.7929 146.012 77.6929 145.19C77.5929 144.367 76.8452 143.782 76.0229 143.882L62.6215 145.511ZM156.427 181.599C155.599 181.635 154.958 182.336 154.994 183.163C155.031 183.991 155.731 184.633 156.559 184.596L156.427 181.599ZM143.062 184.486C143.889 184.536 144.6 183.905 144.649 183.078C144.698 182.251 144.068 181.541 143.241 181.491L143.062 184.486ZM130.161 179.979C129.345 179.835 128.567 180.38 128.424 181.196C128.28 182.012 128.826 182.79 129.641 182.933L130.161 179.979ZM116.491 179.68C117.278 179.938 118.125 179.509 118.383 178.722C118.641 177.935 118.213 177.087 117.425 176.829L116.491 179.68ZM104.989 171.649C104.244 171.288 103.347 171.6 102.986 172.345C102.625 173.091 102.937 173.988 103.682 174.349L104.989 171.649ZM91.2039 167.721C91.9221 168.134 92.839 167.887 93.2519 167.169C93.6649 166.451 93.4174 165.534 92.6992 165.121L91.2039 167.721ZM80.8111 157.836C80.1162 157.385 79.1873 157.582 78.7362 158.277C78.2851 158.972 78.4827 159.901 79.1775 160.352L80.8111 157.836ZM67.5397 152.392C68.2119 152.876 69.1493 152.723 69.6336 152.051C70.1178 151.379 69.9655 150.442 69.2934 149.957L67.5397 152.392ZM163.13 182.592C162.937 181.105 162.937 181.105 162.937 181.105C162.937 181.105 162.937 181.105 162.937 181.105C162.937 181.105 162.937 181.105 162.937 181.105C162.937 181.105 162.937 181.105 162.937 181.105C162.936 181.105 162.935 181.105 162.933 181.105C162.929 181.106 162.923 181.106 162.914 181.107C162.897 181.11 162.871 181.113 162.835 181.117C162.763 181.126 162.654 181.139 162.51 181.155C162.22 181.187 161.789 181.232 161.229 181.283C160.108 181.384 158.472 181.509 156.427 181.599L156.559 184.596C158.655 184.504 160.338 184.376 161.5 184.27C162.081 184.218 162.532 184.171 162.84 184.136C162.995 184.119 163.113 184.105 163.194 184.096C163.234 184.091 163.265 184.087 163.287 184.084C163.297 184.083 163.306 184.082 163.312 184.081C163.315 184.081 163.317 184.08 163.319 184.08C163.32 184.08 163.32 184.08 163.321 184.08C163.321 184.08 163.321 184.08 163.322 184.08C163.322 184.08 163.322 184.08 163.322 184.08C163.322 184.08 163.322 184.08 163.13 182.592ZM143.241 181.491C139.191 181.249 134.754 180.786 130.161 179.979L129.641 182.933C134.365 183.764 138.917 184.238 143.062 184.486L143.241 181.491ZM117.425 176.829C115.366 176.154 113.319 175.391 111.303 174.529L110.124 177.288C112.226 178.186 114.355 178.979 116.491 179.68L117.425 176.829ZM111.303 174.529C109.191 173.627 107.082 172.661 104.989 171.649L103.682 174.349C105.813 175.38 107.965 176.366 110.124 177.288L111.303 174.529ZM92.6992 165.121C88.4394 162.671 84.4219 160.18 80.8111 157.836L79.1775 160.352C82.8256 162.721 86.8896 165.241 91.2039 167.721L92.6992 165.121ZM69.2934 149.957C67.5317 148.688 66.137 147.651 65.1843 146.933C64.7079 146.573 64.3421 146.294 64.0961 146.104C63.9732 146.01 63.8802 145.938 63.8183 145.89C63.7874 145.866 63.7643 145.848 63.7491 145.836C63.7415 145.83 63.7359 145.826 63.7323 145.823C63.7305 145.821 63.7291 145.82 63.7283 145.82C63.7279 145.819 63.7277 145.819 63.7275 145.819C63.7274 145.819 63.7274 145.819 63.7274 145.819C63.7274 145.819 63.7274 145.819 63.7274 145.819C63.7274 145.819 63.7274 145.819 62.8025 147C61.8776 148.181 61.8777 148.181 61.8777 148.181C61.8778 148.181 61.8778 148.181 61.8779 148.181C61.878 148.181 61.8781 148.181 61.8783 148.181C61.8787 148.182 61.8791 148.182 61.8798 148.183C61.881 148.183 61.8827 148.185 61.8849 148.187C61.8893 148.19 61.8958 148.195 61.9042 148.202C61.9211 148.215 61.9459 148.234 61.9786 148.259C62.0438 148.31 62.1403 148.385 62.2669 148.482C62.52 148.677 62.8934 148.962 63.3777 149.328C64.3462 150.058 65.7586 151.108 67.5397 152.392L69.2934 149.957Z" fill="white"/>
<path d="M163.375 112.891C164.115 113.263 164.414 114.165 164.042 114.905C163.671 115.645 162.769 115.944 162.029 115.572L163.375 112.891ZM85.2538 113.084C84.5352 112.672 84.2867 111.755 84.6988 111.037L91.4145 99.3255C91.8266 98.6068 92.7432 98.3583 93.4619 98.7705C94.1805 99.1826 94.4291 100.099 94.0169 100.818L88.0474 111.228L98.4573 117.197C99.1759 117.609 99.4244 118.526 99.0123 119.245C98.6002 119.963 97.6836 120.212 96.9649 119.8L85.2538 113.084ZM153.357 112.032C152.575 111.759 152.163 110.903 152.436 110.121C152.71 109.339 153.565 108.927 154.347 109.2L153.357 112.032ZM135.465 104.676C136.287 104.777 136.871 105.526 136.77 106.348C136.669 107.17 135.92 107.755 135.098 107.653L135.465 104.676ZM115.842 107.835C115.018 107.92 114.281 107.321 114.196 106.497C114.11 105.673 114.709 104.936 115.533 104.851L115.842 107.835ZM95.4966 108.032C96.3077 107.863 97.1018 108.384 97.2704 109.195C97.439 110.007 96.9181 110.801 96.107 110.969L95.4966 108.032ZM162.702 114.232C162.029 115.572 162.029 115.573 162.029 115.573C162.029 115.573 162.029 115.573 162.029 115.573C162.029 115.573 162.029 115.573 162.029 115.573C162.029 115.573 162.029 115.572 162.028 115.572C162.027 115.572 162.026 115.571 162.023 115.57C162.018 115.567 162.009 115.563 161.997 115.557C161.974 115.545 161.937 115.527 161.888 115.503C161.79 115.455 161.641 115.384 161.444 115.291C161.051 115.107 160.467 114.839 159.715 114.512C158.21 113.857 156.032 112.967 153.357 112.032L154.347 109.2C157.102 110.163 159.349 111.081 160.911 111.76C161.692 112.1 162.303 112.38 162.721 112.576C162.93 112.675 163.091 112.752 163.201 112.806C163.256 112.832 163.298 112.853 163.327 112.868C163.342 112.875 163.353 112.88 163.361 112.884C163.365 112.886 163.368 112.888 163.37 112.889C163.372 112.89 163.373 112.89 163.373 112.891C163.374 112.891 163.374 112.891 163.374 112.891C163.374 112.891 163.375 112.891 163.375 112.891C163.375 112.891 163.375 112.891 162.702 114.232ZM135.098 107.653C132.062 107.28 128.926 107.089 125.772 107.169L125.696 104.17C129.019 104.086 132.305 104.287 135.465 104.676L135.098 107.653ZM125.772 107.169C122.485 107.253 119.135 107.493 115.842 107.835L115.533 104.851C118.887 104.503 122.316 104.256 125.696 104.17L125.772 107.169ZM96.107 110.969C93.162 111.581 90.7284 112.148 89.0329 112.561C88.1853 112.768 87.5225 112.936 87.0729 113.052C86.8482 113.11 86.6767 113.155 86.5621 113.185C86.5048 113.2 86.4617 113.212 86.4333 113.22C86.4191 113.223 86.4085 113.226 86.4017 113.228C86.3983 113.229 86.3958 113.23 86.3943 113.23C86.3935 113.23 86.393 113.23 86.3927 113.23C86.3925 113.23 86.3924 113.231 86.3924 113.231C86.3924 113.231 86.3924 113.231 86.3924 113.231C86.3924 113.231 86.3925 113.231 86 111.783C85.6075 110.335 85.6076 110.335 85.6077 110.335C85.6078 110.335 85.6079 110.335 85.608 110.335C85.6082 110.335 85.6084 110.335 85.6088 110.335C85.6094 110.335 85.6103 110.334 85.6114 110.334C85.6136 110.333 85.6168 110.333 85.6209 110.331C85.6291 110.329 85.641 110.326 85.6566 110.322C85.6879 110.313 85.7338 110.301 85.794 110.285C85.9144 110.253 86.0919 110.207 86.3228 110.147C86.7848 110.028 87.4609 109.856 88.3227 109.646C90.0461 109.226 92.5133 108.652 95.4966 108.032L96.107 110.969Z" fill="white"/>
<rect x="40.7031" y="82" width="44.0844" height="16.7521" rx="8.37603" transform="rotate(45 40.7031 82)" fill="#334FEF" fill-opacity="0.5"/>
<rect x="39.457" y="94.4688" width="44.0844" height="16.7521" rx="8.37603" transform="rotate(45 39.457 94.4688)" fill="#334FEF" fill-opacity="0.9"/>
<path d="M164.855 33.0293C165.672 33.1654 166.224 33.9382 166.088 34.7553C165.952 35.5725 165.179 36.1246 164.362 35.9886L164.855 33.0293ZM74.5203 91.3258C73.725 91.5576 72.8923 91.1008 72.6605 90.3055L68.8827 77.3448C68.6509 76.5495 69.1077 75.7168 69.9031 75.485C70.6984 75.2532 71.5311 75.71 71.7629 76.5053L75.1209 88.0259L86.6415 84.6679C87.4368 84.4361 88.2695 84.8929 88.5013 85.6882C88.7331 86.4836 88.2763 87.3162 87.481 87.5481L74.5203 91.3258ZM157.529 35.2936C156.702 35.2425 156.073 34.5307 156.125 33.7038C156.176 32.877 156.888 32.2482 157.714 32.2994L157.529 35.2936ZM143.449 32.4051C144.275 32.3399 144.997 32.9566 145.062 33.7824C145.128 34.6083 144.511 35.3306 143.685 35.3958L143.449 32.4051ZM130.084 37.6181C129.282 37.8265 128.463 37.3455 128.255 36.5438C128.046 35.742 128.527 34.923 129.329 34.7146L130.084 37.6181ZM115.908 39.9269C116.635 39.5294 117.547 39.7965 117.944 40.5234C118.341 41.2502 118.074 42.1617 117.347 42.5591L115.908 39.9269ZM106.174 50.861C105.561 51.4181 104.613 51.3726 104.056 50.7594C103.498 50.1463 103.544 49.1976 104.157 48.6405L106.174 50.861ZM93.8994 59.2072C94.4429 58.5819 95.3903 58.5156 96.0155 59.059C96.6408 59.6025 96.7072 60.5499 96.1637 61.1752L93.8994 59.2072ZM87.1901 72.4691C86.7014 73.138 85.7629 73.2841 85.094 72.7953C84.4251 72.3065 84.2791 71.3681 84.7679 70.6992L87.1901 72.4691ZM76.5467 82.849C76.9859 82.1466 77.9114 81.9333 78.6138 82.3726C79.3162 82.8119 79.5294 83.7374 79.0902 84.4398L76.5467 82.849ZM164.609 34.5089C164.362 35.9886 164.362 35.9886 164.363 35.9886C164.363 35.9886 164.363 35.9886 164.363 35.9886C164.363 35.9886 164.363 35.9886 164.363 35.9886C164.363 35.9886 164.363 35.9886 164.362 35.9886C164.362 35.9884 164.36 35.9882 164.358 35.9879C164.354 35.9873 164.348 35.9862 164.339 35.9848C164.321 35.9818 164.293 35.9773 164.254 35.9714C164.178 35.9595 164.062 35.9419 163.909 35.9197C163.602 35.8754 163.144 35.813 162.553 35.7421C161.37 35.6003 159.652 35.425 157.529 35.2936L157.714 32.2994C159.902 32.4347 161.677 32.6156 162.91 32.7634C163.527 32.8373 164.008 32.9029 164.337 32.9505C164.502 32.9743 164.629 32.9936 164.716 33.0071C164.76 33.0139 164.793 33.0192 164.816 33.023C164.828 33.0249 164.837 33.0263 164.843 33.0274C164.847 33.0279 164.849 33.0284 164.851 33.0287C164.852 33.0288 164.853 33.029 164.854 33.0291C164.854 33.0291 164.854 33.0292 164.854 33.0292C164.855 33.0292 164.855 33.0293 164.855 33.0293C164.855 33.0293 164.855 33.0293 164.609 34.5089ZM143.685 35.3958C139.371 35.7362 134.726 36.4112 130.084 37.6181L129.329 34.7146C134.174 33.4548 138.998 32.7563 143.449 32.4051L143.685 35.3958ZM117.347 42.5591C115.371 43.6399 113.462 44.8678 111.653 46.261L109.823 43.8838C111.765 42.3885 113.806 41.0766 115.908 39.9269L117.347 42.5591ZM111.653 46.261C109.786 47.6978 107.957 49.2411 106.174 50.861L104.157 48.6405C105.993 46.9723 107.885 45.3758 109.823 43.8838L111.653 46.261ZM96.1637 61.1752C92.8545 64.9826 89.8376 68.8459 87.1901 72.4691L84.7679 70.6992C87.4553 67.0213 90.5248 63.0899 93.8994 59.2072L96.1637 61.1752ZM79.0902 84.4398C77.9035 86.3372 76.9821 87.884 76.3587 88.9542C76.047 89.4892 75.8098 89.905 75.6513 90.1858C75.572 90.3262 75.5124 90.4328 75.473 90.5037C75.4532 90.5392 75.4386 90.5657 75.429 90.583C75.4242 90.5917 75.4207 90.5981 75.4185 90.6021C75.4174 90.6041 75.4166 90.6056 75.4161 90.6064C75.4159 90.6068 75.4157 90.6071 75.4156 90.6073C75.4156 90.6073 75.4156 90.6074 75.4156 90.6074C75.4156 90.6073 75.4156 90.6073 75.4156 90.6073C75.4156 90.6073 75.4157 90.6072 74.1006 89.8857C72.7855 89.1643 72.7855 89.1642 72.7855 89.1641C72.7856 89.1641 72.7856 89.164 72.7857 89.1639C72.7857 89.1638 72.7858 89.1636 72.786 89.1633C72.7862 89.1629 72.7866 89.1623 72.787 89.1615C72.7878 89.16 72.7889 89.158 72.7904 89.1553C72.7933 89.15 72.7976 89.1423 72.8031 89.1323C72.8141 89.1124 72.8302 89.0832 72.8515 89.0451C72.8939 88.9689 72.9565 88.8568 73.039 88.7108C73.2038 88.4189 73.4477 87.9913 73.7665 87.4441C74.404 86.3496 75.3416 84.7758 76.5467 82.849L79.0902 84.4398Z" fill="white"/>
</svg>
