<svg width="250" height="220" viewBox="0 0 250 220" fill="none" xmlns="http://www.w3.org/2000/svg">
<path d="M53.1651 77.028L55.0354 75.4587C55.574 76.2221 55.908 77.0254 56.0376 77.8685C56.163 78.7067 56.0529 79.5427 55.7073 80.3766C55.3616 81.2105 54.75 81.9958 53.8722 82.7323C53.1989 83.2972 52.4925 83.686 51.753 83.8986C51.0094 84.1061 50.2593 84.1491 49.5028 84.0275C48.7422 83.9009 47.9939 83.6066 47.2579 83.1448C46.527 82.6789 45.833 82.0544 45.1759 81.2714L44.4164 80.3662C43.7594 79.5832 43.2674 78.7892 42.9404 77.9842C42.6184 77.1751 42.4636 76.3829 42.4759 75.6076C42.4841 74.8273 42.6596 74.0894 43.0023 73.3939C43.3501 72.6942 43.8656 72.0577 44.5488 71.4844C45.4166 70.7562 46.2836 70.3006 47.1499 70.1176C48.0162 69.9346 48.8504 69.9868 49.6525 70.2742C50.4595 70.5574 51.2059 71.0316 51.8917 71.697L50.0215 73.2663C49.5782 72.8394 49.1316 72.5299 48.6817 72.3381C48.2367 72.142 47.7789 72.0927 47.3083 72.1902C46.8334 72.2827 46.3342 72.5486 45.8105 72.988C45.3816 73.3479 45.0745 73.7416 44.8893 74.169C44.704 74.5964 44.6339 75.0547 44.6789 75.5439C44.7239 76.033 44.8819 76.5505 45.153 77.0965C45.4249 77.6332 45.8036 78.1908 46.289 78.7693L47.0611 79.6895C47.5215 80.2381 47.9873 80.6971 48.4587 81.0664C48.9309 81.4266 49.4007 81.6826 49.868 81.8344C50.3403 81.982 50.8068 82.0112 51.2674 81.9221C51.7281 81.833 52.1779 81.6044 52.6168 81.2361C53.1504 80.7883 53.5107 80.3416 53.6975 79.8958C53.8894 79.4458 53.9341 78.9876 53.8317 78.5212C53.73 78.0456 53.5078 77.5478 53.1651 77.028ZM56.7914 73.2841L56.647 73.112C56.1574 72.5285 55.7881 71.9163 55.5392 71.2753C55.2861 70.6293 55.1643 69.9878 55.1738 69.3509C55.1841 68.7049 55.3354 68.085 55.6276 67.4913C55.9207 66.8885 56.3614 66.3402 56.9499 65.8464C57.5434 65.3484 58.1599 65.0095 58.7995 64.8298C59.4399 64.6409 60.0791 64.5975 60.7171 64.6995C61.351 64.7966 61.964 65.0258 62.5563 65.3872C63.1443 65.7437 63.6832 66.2136 64.1728 66.7972L64.3172 66.9692C64.8068 67.5527 65.176 68.165 65.425 68.806C65.6739 69.447 65.7932 70.0905 65.7829 70.7366C65.7684 71.3777 65.6171 71.9975 65.329 72.5962C65.0368 73.1899 64.5964 73.7336 64.0079 74.2274C63.4144 74.7254 62.7975 75.0688 62.1571 75.2577C61.5176 75.4375 60.8808 75.4788 60.247 75.3817C59.609 75.2797 58.9959 75.0505 58.4079 74.694C57.8198 74.3376 57.281 73.8676 56.7914 73.2841ZM58.4499 71.5992L58.5943 71.7713C58.8998 72.1354 59.2259 72.4481 59.5727 72.7095C59.9196 72.9709 60.2753 73.1568 60.6399 73.2673C61.0046 73.3778 61.3702 73.3982 61.7367 73.3286C62.1033 73.259 62.4586 73.0798 62.8027 72.7911C63.1369 72.5107 63.3675 72.1981 63.4947 71.8534C63.6269 71.5046 63.6703 71.141 63.6248 70.7627C63.5794 70.3844 63.458 70.0018 63.2608 69.6148C63.0686 69.2237 62.8197 68.8461 62.5143 68.482L62.3699 68.31C62.0686 67.9509 61.7441 67.6452 61.3965 67.393C61.0497 67.1316 60.6893 66.9453 60.3155 66.834C59.9467 66.7186 59.579 66.6956 59.2125 66.7652C58.8467 66.8256 58.4943 66.9981 58.1552 67.2827C57.816 67.5673 57.5825 67.8865 57.4544 68.2404C57.3272 68.5851 57.2885 68.9491 57.3381 69.3323C57.3878 69.7156 57.5112 70.1007 57.7084 70.4877C57.9014 70.8696 58.1486 71.2401 58.4499 71.5992ZM66.5142 61.0208L71.8561 67.387L70.0532 68.8998L63.2613 60.8055L64.9594 59.3806L66.5142 61.0208ZM67.8874 63.3105L67.2976 63.7927C66.8213 63.215 66.4596 62.6218 66.2125 62.0133C65.9703 61.4006 65.8445 60.8051 65.8351 60.2266C65.8306 59.6439 65.9479 59.095 66.1871 58.5799C66.4221 58.0598 66.7814 57.5968 67.2652 57.1908C67.6542 56.8644 68.0518 56.6243 68.4581 56.4703C68.8652 56.3072 69.2813 56.2512 69.7066 56.3023C70.1369 56.3492 70.573 56.5144 71.015 56.798C71.4527 57.0766 71.9038 57.4927 72.3683 58.0463L76.7561 63.2754L74.9457 64.7945L70.5517 59.5579C70.2253 59.1689 69.9106 58.9103 69.6075 58.7821C69.3053 58.6448 69.0072 58.6187 68.7133 58.7039C68.4201 58.7799 68.1164 58.9497 67.8022 59.2134C67.493 59.4728 67.2706 59.7699 67.135 60.1046C66.9995 60.4394 66.9411 60.7901 66.9598 61.1568C66.9835 61.5193 67.074 61.8854 67.2311 62.2549C67.3882 62.6245 67.607 62.9764 67.8874 63.3105ZM76.4343 49.7521L77.539 51.0687L72.9757 54.8978L71.8709 53.5812L76.4343 49.7521ZM71.5241 50.4939L73.327 48.9811L79.9055 56.8211C80.1147 57.0705 80.3108 57.2332 80.4936 57.3093C80.6772 57.3761 80.8527 57.3776 81.02 57.3137C81.1873 57.2498 81.3583 57.1446 81.5328 56.9981C81.6575 56.8935 81.7709 56.7856 81.8731 56.6744C81.9752 56.5632 82.0549 56.4708 82.1122 56.3972L83.2747 57.7675C83.1627 57.9379 83.0217 58.1242 82.8515 58.3266C82.6863 58.5247 82.4765 58.7304 82.2221 58.9439C81.8082 59.2912 81.3809 59.5265 80.9404 59.6497C80.4957 59.7679 80.0433 59.7352 79.5834 59.5517C79.1235 59.3683 78.6613 58.9997 78.1968 58.4461L71.5241 50.4939ZM89.2308 53.0629C88.6324 53.565 88.0096 53.9218 87.3627 54.1333C86.7165 54.3355 86.0753 54.4019 85.439 54.3324C84.8078 54.2586 84.2015 54.0577 83.6202 53.7296C83.0389 53.4015 82.516 52.9606 82.0515 52.407L81.8004 52.1078C81.2689 51.4744 80.88 50.8235 80.6335 50.1549C80.3869 49.4864 80.2755 48.832 80.2992 48.1917C80.3187 47.5465 80.4712 46.9383 80.7569 46.3671C81.0425 45.796 81.4472 45.2907 81.9709 44.8513C82.5494 44.3659 83.1372 44.0384 83.7343 43.8688C84.3314 43.6992 84.9206 43.6722 85.502 43.7878C86.0842 43.8942 86.6481 44.1307 87.1937 44.4973C87.7442 44.8597 88.2643 45.3326 88.754 45.9161L89.4005 46.6867L83.1465 51.9344L82.0605 50.6402L86.5341 46.8864L86.4148 46.7443C86.1328 46.4285 85.8127 46.1787 85.4545 45.9948C85.1013 45.8068 84.7317 45.726 84.3459 45.7523C83.96 45.7786 83.5676 45.9592 83.1686 46.2939C82.8694 46.545 82.6569 46.8338 82.5314 47.1601C82.4066 47.4773 82.3673 47.8204 82.4136 48.1896C82.4598 48.5587 82.5828 48.9484 82.7826 49.3587C82.9832 49.7598 83.2593 50.1698 83.6108 50.5887L83.8619 50.8879C84.159 51.242 84.4826 51.5314 84.8326 51.7562C85.1835 51.9717 85.5478 52.1122 85.9256 52.1776C86.3035 52.243 86.6814 52.2275 87.0595 52.1312C87.4335 52.0299 87.7925 51.8349 88.1366 51.5461C88.5705 51.1821 88.8838 50.7705 89.0765 50.3113C89.2691 49.8522 89.3562 49.3584 89.3378 48.83L91.0599 48.953C91.0988 49.3538 91.0769 49.7886 90.9943 50.2573C90.9076 50.7211 90.7229 51.1948 90.4403 51.6784C90.1626 52.1578 89.7595 52.6193 89.2308 53.0629ZM91.1162 40.3772L96.4581 46.7435L94.6552 48.2563L87.8633 40.162L89.5614 38.737L91.1162 40.3772ZM92.4894 42.667L91.8996 43.1491C91.4233 42.5714 91.0616 41.9783 90.8145 41.3698C90.5723 40.7571 90.4465 40.1615 90.4371 39.5831C90.4326 39.0004 90.5499 38.4515 90.7891 37.9364C91.0241 37.4163 91.3834 36.9532 91.8672 36.5473C92.2562 36.2209 92.6538 35.9807 93.0601 35.8268C93.4672 35.6637 93.8833 35.6077 94.3086 35.6588C94.7389 35.7057 95.175 35.8709 95.617 36.1545C96.0547 36.4331 96.5058 36.8492 96.9703 37.4028L101.358 42.6319L99.5477 44.151L95.1537 38.9144C94.8273 38.5254 94.5126 38.2668 94.2095 38.1386C93.9073 38.0012 93.6092 37.9752 93.3152 38.0604C93.0221 38.1364 92.7184 38.3062 92.4042 38.5698C92.095 38.8293 91.8726 39.1264 91.737 39.4611C91.6015 39.7958 91.5431 40.1466 91.5618 40.5133C91.5855 40.8758 91.676 41.2418 91.8331 41.6114C91.9902 41.981 92.209 42.3329 92.4894 42.667ZM101.036 29.1085L102.141 30.4252L97.5777 34.2543L96.4729 32.9376L101.036 29.1085ZM96.1261 29.8504L97.929 28.3376L104.507 36.1776C104.717 36.4269 104.913 36.5897 105.096 36.6657C105.279 36.7326 105.455 36.7341 105.622 36.6702C105.789 36.6063 105.96 36.5011 106.135 36.3546C106.26 36.25 106.373 36.1421 106.475 36.0309C106.577 35.9197 106.657 35.8273 106.714 35.7537L107.877 37.1239C107.765 37.2944 107.624 37.4807 107.453 37.683C107.288 37.8811 107.078 38.0869 106.824 38.3003C106.41 38.6477 105.983 38.883 105.542 39.0062C105.098 39.1244 104.645 39.0917 104.185 38.9082C103.725 38.7247 103.263 38.3562 102.799 37.8026L96.1261 29.8504Z" fill="white"/>
<rect x="30.8457" y="118" width="108.083" height="16.7521" rx="8.37603" transform="rotate(45 30.8457 118)" fill="#334FEF" fill-opacity="0.5"/>
<rect x="161.846" y="13" width="108.083" height="16.7521" rx="8.37603" transform="rotate(45 161.846 13)" fill="#334FEF" fill-opacity="0.9"/>
<path d="M156.5 18.5L26.5 123L101 200.5L232.5 95L156.5 18.5Z" fill="#334FEF" fill-opacity="0.3"/>
<rect x="129.909" y="81.1895" width="40" height="40" rx="10" transform="rotate(-43 129.909 81.1895)" fill="#334FEF" fill-opacity="0.5"/>
<rect x="89.3447" y="106" width="44.0844" height="16.7521" rx="8.37603" transform="rotate(47 89.3447 106)" fill="#334FEF" fill-opacity="0.5"/>
<rect x="87.6641" y="118.418" width="44.0844" height="16.7521" rx="8.37603" transform="rotate(47 87.6641 118.418)" fill="#334FEF" fill-opacity="0.9"/>
<path d="M158.416 93.8238C158.319 93.0011 157.573 92.4131 156.751 92.5104C155.928 92.6078 155.34 93.3536 155.437 94.1763L158.416 93.8238ZM116.979 127.336C116.372 127.899 116.337 128.849 116.901 129.455L126.09 139.346C126.654 139.952 127.603 139.987 128.21 139.423C128.817 138.86 128.852 137.91 128.288 137.304L120.12 128.512L128.911 120.344C129.518 119.781 129.553 118.831 128.989 118.225C128.425 117.618 127.476 117.583 126.869 118.147L116.979 127.336ZM148.359 122.361L147.579 121.081L148.359 122.361ZM155.629 101.681C155.593 102.509 156.235 103.209 157.062 103.245C157.89 103.28 158.59 102.638 158.626 101.811L155.629 101.681ZM154.879 117.452C155.281 116.727 155.019 115.815 154.294 115.413C153.569 115.012 152.657 115.274 152.255 115.999L154.879 117.452ZM140.757 124.079C139.968 124.329 139.53 125.173 139.781 125.962C140.031 126.752 140.874 127.189 141.664 126.939L140.757 124.079ZM125.928 129.722C126.755 129.663 127.377 128.945 127.318 128.119C127.259 127.293 126.541 126.671 125.714 126.73L125.928 129.722ZM156.927 94C155.437 94.1763 155.437 94.1762 155.437 94.1761C155.437 94.176 155.437 94.1759 155.437 94.1759C155.437 94.1758 155.437 94.1757 155.437 94.1757C155.437 94.1757 155.437 94.1759 155.437 94.1762C155.437 94.177 155.438 94.1786 155.438 94.1809C155.438 94.1856 155.439 94.1935 155.44 94.2044C155.443 94.2263 155.447 94.2605 155.451 94.3065C155.461 94.3984 155.475 94.5375 155.491 94.7194C155.523 95.0833 155.565 95.6182 155.601 96.29C155.673 97.635 155.722 99.522 155.629 101.681L158.626 101.811C158.724 99.5348 158.673 97.5487 158.597 96.1296C158.559 95.4194 158.514 94.8493 158.479 94.4539C158.462 94.2561 158.446 94.1019 158.435 93.9955C158.43 93.9422 158.425 93.901 158.422 93.8722C158.42 93.8578 158.419 93.8465 158.418 93.8384C158.418 93.8344 158.417 93.8311 158.417 93.8287C158.417 93.8275 158.417 93.8264 158.417 93.8256C158.417 93.8252 158.417 93.8249 158.417 93.8245C158.417 93.8244 158.417 93.8242 158.417 93.8241C158.417 93.8239 158.416 93.8238 156.927 94ZM152.255 115.999C151.086 118.109 149.56 119.872 147.579 121.081L149.14 123.642C151.662 122.105 153.518 119.909 154.879 117.452L152.255 115.999ZM147.579 121.081C145.562 122.31 143.231 123.295 140.757 124.079L141.664 126.939C144.299 126.104 146.865 125.03 149.14 123.642L147.579 121.081ZM125.714 126.73C123.459 126.891 121.536 126.942 120.179 126.953C119.501 126.959 118.965 126.954 118.601 126.948C118.419 126.945 118.281 126.942 118.188 126.939C118.142 126.938 118.108 126.937 118.085 126.936C118.074 126.936 118.066 126.936 118.061 126.936C118.058 126.936 118.057 126.936 118.056 126.935C118.055 126.935 118.055 126.935 118.055 126.935C118.055 126.935 118.055 126.935 118.055 126.935C118.055 126.935 118.055 126.935 118.055 126.935C118.055 126.935 118.055 126.935 118 128.434C117.945 129.933 117.945 129.933 117.945 129.933C117.945 129.933 117.945 129.933 117.946 129.933C117.946 129.933 117.946 129.933 117.946 129.933C117.947 129.934 117.948 129.934 117.949 129.934C117.951 129.934 117.954 129.934 117.958 129.934C117.965 129.934 117.976 129.935 117.99 129.935C118.017 129.936 118.057 129.937 118.108 129.938C118.21 129.941 118.36 129.945 118.553 129.948C118.939 129.954 119.499 129.959 120.203 129.953C121.611 129.942 123.599 129.888 125.928 129.722L125.714 126.73Z" fill="white"/>
</svg>
