<svg width="140" height="80" viewBox="0 0 140 80" fill="none" xmlns="http://www.w3.org/2000/svg">
<rect x="59.0474" y="7" width="52.2459" height="19.8534" rx="9.92672" transform="rotate(45 59.0474 7)" fill="#334FEF" fill-opacity="0.5"/>
<rect x="57.5703" y="21.7771" width="52.2459" height="19.8534" rx="9.92672" transform="rotate(45 57.5703 21.7771)" fill="#334FEF" fill-opacity="0.9"/>
<path d="M35.0231 42.1396H37.5866C37.5046 43.1172 37.2311 43.9888 36.7663 44.7544C36.3014 45.5132 35.6486 46.1113 34.8078 46.5488C33.967 46.9863 32.945 47.2051 31.7419 47.2051C30.819 47.2051 29.9884 47.041 29.2502 46.7129C28.5119 46.3779 27.8796 45.9062 27.3532 45.2979C26.8268 44.6826 26.4235 43.9409 26.1432 43.0728C25.8698 42.2046 25.7331 41.2339 25.7331 40.1606V38.9199C25.7331 37.8467 25.8732 36.876 26.1535 36.0078C26.4406 35.1396 26.8507 34.3979 27.3839 33.7827C27.9171 33.1606 28.5563 32.6855 29.3014 32.3574C30.0534 32.0293 30.8976 31.8652 31.8341 31.8652C33.0236 31.8652 34.0285 32.084 34.8488 32.5215C35.6691 32.959 36.3048 33.564 36.756 34.3364C37.214 35.1089 37.4943 35.9941 37.5968 36.9922H35.0334C34.965 36.3496 34.8146 35.7993 34.5822 35.3413C34.3566 34.8833 34.0216 34.5347 33.5773 34.2954C33.133 34.0493 32.5519 33.9263 31.8341 33.9263C31.2463 33.9263 30.7336 34.0356 30.2961 34.2544C29.8586 34.4731 29.4928 34.7944 29.1989 35.2183C28.9049 35.6421 28.6828 36.165 28.5324 36.7871C28.3888 37.4023 28.3171 38.1064 28.3171 38.8994V40.1606C28.3171 40.9126 28.382 41.5962 28.5119 42.2114C28.6486 42.8198 28.8537 43.3428 29.1271 43.7803C29.4074 44.2178 29.7629 44.5562 30.1935 44.7954C30.6242 45.0347 31.1403 45.1543 31.7419 45.1543C32.4733 45.1543 33.0646 45.0381 33.5158 44.8057C33.9738 44.5732 34.319 44.2349 34.5514 43.7905C34.7907 43.3394 34.9479 42.7891 35.0231 42.1396ZM47.1933 44.7749V39.4839C47.1933 39.0874 47.1215 38.7456 46.9779 38.4585C46.8344 38.1714 46.6156 37.9492 46.3217 37.792C46.0346 37.6348 45.6723 37.5562 45.2348 37.5562C44.8314 37.5562 44.4828 37.6245 44.1889 37.7612C43.8949 37.8979 43.6659 38.0825 43.5019 38.3149C43.3378 38.5474 43.2558 38.8105 43.2558 39.1045H40.7948C40.7948 38.667 40.9008 38.2432 41.1127 37.833C41.3246 37.4229 41.6322 37.0571 42.0355 36.7358C42.4389 36.4146 42.9208 36.1616 43.4813 35.9771C44.0419 35.7925 44.6708 35.7002 45.3681 35.7002C46.2021 35.7002 46.9403 35.8403 47.5829 36.1206C48.2323 36.4009 48.7416 36.8247 49.1107 37.3921C49.4867 37.9526 49.6747 38.6567 49.6747 39.5044V44.4365C49.6747 44.9424 49.7089 45.397 49.7772 45.8003C49.8524 46.1968 49.9584 46.542 50.0951 46.8359V47H47.5624C47.4462 46.7334 47.3539 46.395 47.2855 45.9849C47.224 45.5679 47.1933 45.1646 47.1933 44.7749ZM47.5521 40.2529L47.5727 41.7808H45.7987C45.3407 41.7808 44.9374 41.8252 44.5888 41.9141C44.2401 41.9961 43.9496 42.1191 43.7172 42.2832C43.4848 42.4473 43.3104 42.6455 43.1942 42.8779C43.078 43.1104 43.0199 43.3735 43.0199 43.6675C43.0199 43.9614 43.0883 44.2314 43.225 44.4775C43.3617 44.7168 43.56 44.9048 43.8197 45.0415C44.0863 45.1782 44.4076 45.2466 44.7836 45.2466C45.2895 45.2466 45.7304 45.144 46.1063 44.939C46.4892 44.7271 46.7899 44.4707 47.0087 44.1699C47.2274 43.8623 47.3437 43.5718 47.3573 43.2983L48.1571 44.3955C48.0751 44.6758 47.935 44.9766 47.7367 45.2979C47.5385 45.6191 47.2787 45.9268 46.9574 46.2207C46.643 46.5078 46.2636 46.7437 45.8192 46.9282C45.3817 47.1128 44.8759 47.2051 44.3017 47.2051C43.5771 47.2051 42.9311 47.0615 42.3637 46.7744C41.7963 46.4805 41.352 46.0874 41.0307 45.5952C40.7094 45.0962 40.5487 44.5322 40.5487 43.9033C40.5487 43.3154 40.6581 42.7959 40.8769 42.3447C41.1024 41.8867 41.4306 41.5039 41.8612 41.1963C42.2987 40.8887 42.8319 40.6562 43.4608 40.499C44.0897 40.335 44.8075 40.2529 45.6142 40.2529H47.5521ZM56.0001 38.0381V51.2656H53.5289V35.9053H55.8053L56.0001 38.0381ZM63.2291 41.3501V41.5654C63.2291 42.3721 63.1334 43.1206 62.942 43.811C62.7575 44.4946 62.4806 45.0928 62.1115 45.6055C61.7492 46.1113 61.3014 46.5044 60.7682 46.7847C60.235 47.0649 59.6198 47.2051 58.9225 47.2051C58.2321 47.2051 57.6271 47.0786 57.1076 46.8257C56.5949 46.5659 56.1608 46.2002 55.8053 45.7285C55.4498 45.2568 55.1627 44.7031 54.944 44.0674C54.7321 43.4248 54.5817 42.7207 54.4928 41.9551V41.1245C54.5817 40.311 54.7321 39.5728 54.944 38.9097C55.1627 38.2466 55.4498 37.6758 55.8053 37.1973C56.1608 36.7188 56.5949 36.3496 57.1076 36.0898C57.6203 35.8301 58.2184 35.7002 58.902 35.7002C59.5993 35.7002 60.2179 35.8369 60.7579 36.1104C61.298 36.377 61.7526 36.7598 62.1217 37.2588C62.4909 37.751 62.7677 38.3457 62.9523 39.043C63.1369 39.7334 63.2291 40.5024 63.2291 41.3501ZM60.7579 41.5654V41.3501C60.7579 40.8374 60.7101 40.3623 60.6144 39.9248C60.5187 39.4805 60.3683 39.0908 60.1632 38.7559C59.9581 38.4209 59.695 38.1611 59.3737 37.9766C59.0592 37.7852 58.6798 37.6895 58.2355 37.6895C57.798 37.6895 57.422 37.7646 57.1076 37.915C56.7931 38.0586 56.5299 38.2603 56.318 38.52C56.1061 38.7798 55.942 39.084 55.8258 39.4326C55.7096 39.7744 55.6276 40.147 55.5797 40.5503V42.5396C55.6618 43.0317 55.8019 43.4829 56.0001 43.8931C56.1984 44.3032 56.4787 44.6313 56.841 44.8774C57.2101 45.1167 57.6818 45.2363 58.256 45.2363C58.7003 45.2363 59.0797 45.1406 59.3942 44.9492C59.7086 44.7578 59.965 44.4946 60.1632 44.1597C60.3683 43.8179 60.5187 43.4248 60.6144 42.9805C60.7101 42.5361 60.7579 42.0645 60.7579 41.5654ZM72.8153 43.9956C72.8153 43.7495 72.7538 43.5273 72.6307 43.3291C72.5077 43.124 72.2719 42.9395 71.9232 42.7754C71.5814 42.6113 71.0756 42.4609 70.4056 42.3242C69.8178 42.1943 69.2777 42.0405 68.7855 41.8628C68.3002 41.6782 67.8832 41.4561 67.5345 41.1963C67.1859 40.9365 66.9159 40.6289 66.7245 40.2734C66.5331 39.918 66.4374 39.5078 66.4374 39.043C66.4374 38.5918 66.5365 38.1646 66.7347 37.7612C66.933 37.3579 67.2167 37.0024 67.5858 36.6948C67.955 36.3872 68.4027 36.1445 68.9291 35.9668C69.4623 35.7891 70.057 35.7002 70.7133 35.7002C71.6429 35.7002 72.4393 35.8574 73.1024 36.1719C73.7723 36.4795 74.285 36.8999 74.6405 37.4331C74.996 37.9595 75.1737 38.5542 75.1737 39.2173H72.7025C72.7025 38.9233 72.6273 38.6499 72.4769 38.397C72.3334 38.1372 72.1146 37.9287 71.8207 37.7715C71.5267 37.6074 71.1576 37.5254 70.7133 37.5254C70.2894 37.5254 69.9374 37.5938 69.6571 37.7305C69.3837 37.8604 69.1786 38.0312 69.0419 38.2432C68.912 38.4551 68.847 38.6875 68.847 38.9404C68.847 39.125 68.8812 39.2925 68.9496 39.4429C69.0248 39.5864 69.1478 39.7197 69.3187 39.8428C69.4896 39.959 69.722 40.0684 70.016 40.1709C70.3168 40.2734 70.6928 40.3726 71.1439 40.4683C71.9916 40.646 72.7196 40.875 73.328 41.1553C73.9432 41.4287 74.4149 41.7842 74.743 42.2217C75.0712 42.6523 75.2352 43.1992 75.2352 43.8623C75.2352 44.3545 75.1293 44.8057 74.9174 45.2158C74.7123 45.6191 74.4115 45.9712 74.015 46.272C73.6185 46.5659 73.1434 46.7949 72.5897 46.959C72.0429 47.123 71.4276 47.2051 70.744 47.2051C69.7391 47.2051 68.8881 47.0273 68.1908 46.6719C67.4935 46.3096 66.9637 45.8481 66.6014 45.2876C66.246 44.7202 66.0682 44.1323 66.0682 43.5239H68.4574C68.4847 43.9819 68.6112 44.3477 68.8368 44.6211C69.0692 44.8877 69.3563 45.0825 69.6981 45.2056C70.0468 45.3218 70.4056 45.3799 70.7748 45.3799C71.2191 45.3799 71.5917 45.3218 71.8925 45.2056C72.1932 45.0825 72.4222 44.9185 72.5795 44.7134C72.7367 44.5015 72.8153 44.2622 72.8153 43.9956ZM85.3341 44.3853V35.9053H87.8155V47H85.4777L85.3341 44.3853ZM85.6827 42.0781L86.5133 42.0576C86.5133 42.8027 86.4313 43.4897 86.2672 44.1187C86.1031 44.7407 85.8502 45.2842 85.5084 45.749C85.1666 46.207 84.7291 46.5659 84.1959 46.8257C83.6627 47.0786 83.0236 47.2051 82.2784 47.2051C81.7384 47.2051 81.2428 47.1265 80.7916 46.9692C80.3405 46.812 79.9508 46.5693 79.6227 46.2412C79.3014 45.9131 79.0519 45.4858 78.8741 44.9595C78.6964 44.4331 78.6075 43.8042 78.6075 43.0728V35.9053H81.0787V43.0933C81.0787 43.4966 81.1266 43.835 81.2223 44.1084C81.318 44.375 81.4479 44.5903 81.6119 44.7544C81.776 44.9185 81.9674 45.0347 82.1862 45.103C82.4049 45.1714 82.6373 45.2056 82.8834 45.2056C83.5875 45.2056 84.1412 45.0688 84.5446 44.7954C84.9547 44.5151 85.2452 44.1392 85.4161 43.6675C85.5939 43.1958 85.6827 42.666 85.6827 42.0781ZM94.2538 31.25V47H91.7723V31.25H94.2538ZM103.112 47.2051C102.292 47.2051 101.55 47.0718 100.887 46.8052C100.231 46.5317 99.67 46.1523 99.2052 45.667C98.7472 45.1816 98.3951 44.6108 98.149 43.9546C97.9029 43.2983 97.7799 42.5908 97.7799 41.832V41.4219C97.7799 40.5537 97.9063 39.7676 98.1593 39.0635C98.4122 38.3594 98.7643 37.7578 99.2154 37.2588C99.6666 36.7529 100.2 36.3667 100.815 36.1001C101.43 35.8335 102.097 35.7002 102.815 35.7002C103.608 35.7002 104.301 35.8335 104.896 36.1001C105.491 36.3667 105.983 36.7427 106.373 37.228C106.769 37.7065 107.063 38.2773 107.254 38.9404C107.453 39.6035 107.552 40.335 107.552 41.1348V42.1909H98.9796V40.417H105.111V40.2222C105.098 39.7778 105.009 39.3608 104.845 38.9712C104.688 38.5815 104.445 38.2671 104.117 38.0278C103.789 37.7886 103.351 37.6689 102.804 37.6689C102.394 37.6689 102.028 37.7578 101.707 37.9355C101.393 38.1064 101.129 38.356 100.918 38.6841C100.706 39.0122 100.542 39.4087 100.425 39.8735C100.316 40.3315 100.261 40.8477 100.261 41.4219V41.832C100.261 42.3174 100.326 42.7686 100.456 43.1855C100.593 43.5957 100.791 43.9546 101.051 44.2622C101.311 44.5698 101.625 44.8125 101.994 44.9902C102.363 45.1611 102.784 45.2466 103.255 45.2466C103.85 45.2466 104.38 45.127 104.845 44.8877C105.31 44.6484 105.713 44.3101 106.055 43.8726L107.357 45.1338C107.118 45.4824 106.807 45.8174 106.424 46.1387C106.041 46.4531 105.573 46.7095 105.019 46.9077C104.472 47.106 103.837 47.2051 103.112 47.2051ZM110.842 45.7695C110.842 45.3867 110.972 45.0654 111.232 44.8057C111.492 44.5391 111.844 44.4058 112.288 44.4058C112.739 44.4058 113.091 44.5391 113.344 44.8057C113.604 45.0654 113.734 45.3867 113.734 45.7695C113.734 46.1523 113.604 46.4736 113.344 46.7334C113.091 46.9932 112.739 47.123 112.288 47.123C111.844 47.123 111.492 46.9932 111.232 46.7334C110.972 46.4736 110.842 46.1523 110.842 45.7695Z" fill="white"/>
</svg>
