<?xml version="1.0" encoding="UTF-8"?>
<svg width="237px" height="42px" viewBox="0 0 237 42" version="1.1" xmlns="http://www.w3.org/2000/svg" xmlns:xlink="http://www.w3.org/1999/xlink">
    <!-- Generator: Sketch 48.2 (47327) - http://www.bohemiancoding.com/sketch -->
    <title>logo</title>
    <desc>Created with Sketch.</desc>
    <defs></defs>
    <g id="Desktop-HD" stroke="none" stroke-width="1" fill="none" fill-rule="evenodd" transform="translate(-72.000000, -24.000000)">
        <g id="page1" transform="translate(-33.000000, -227.000000)" fill="#FFFFFF">
            <g id="header">
                <g id="logo" transform="translate(105.000000, 251.000000)">
                    <path d="M21,0 C9.40085106,0 0,9.40085106 0,21 C0,32.5991489 9.40085106,42 21,42 C32.5991489,42 42,32.5991489 42,21 C42,9.40085106 32.5991489,0 21,0 Z M21.3085883,37.40625 C15.6997425,37.40625 11.684421,33.6542223 11.1622492,29.4444112 C11.0992285,28.9596995 11.5403736,28.5108924 12.1255662,28.5019162 C12.1345692,28.5019162 12.1525751,28.5019162 12.1615781,28.5019162 C12.7017558,28.4929401 13.1699099,28.8789142 13.2509366,29.3905544 C13.7551025,32.5142521 16.8611247,35.332761 21.3085883,35.332761 C26.1971971,35.332761 29.4382638,32.37961 29.4382638,28.5019162 C29.4382638,24.6960316 25.8730905,22.2545208 21.3085883,22.2545208 C15.9158136,22.2545208 11.3062966,20.3515785 11.3062966,14.5888947 C11.3062966,9.07754296 15.7897721,4.89466037 21.2635735,4.60742379 C26.7913927,4.32018722 31.6079778,8.59283125 31.319883,14.167016 C31.1488267,17.5420457 28.8440682,19.8040337 27.0794875,19.7142723 C24.9187764,19.6155347 24.7207112,18.2601372 24.6126757,17.0393817 C24.5226461,16.0250776 24.9457853,14.4452764 25.1798623,13.287354 C25.3419157,12.4525727 25.3599216,12.3358828 25.2158742,12.2730498 C24.7927349,12.0755747 23.6583616,12.6231194 23.082172,13.3322347 C22.5329913,14.0952069 22.6410268,16.6085269 22.1278579,17.1919762 C21.6146891,17.7664493 20.2552417,17.4433082 20.0211646,16.7880497 C19.7960906,16.1327913 20.5523394,14.2118967 20.7504046,13.2783778 C20.9214609,12.407692 20.9934846,12.3358828 20.8494372,12.2730498 C20.3902861,12.0576224 19.1388743,12.5602864 18.5626847,13.2694017 C18.1395454,14.1221353 18.2655869,16.5636462 17.7794269,17.1111909 C17.2932669,17.6587356 15.8347869,17.497165 15.6547277,16.5815984 C15.4746684,15.675008 16.6810654,12.15636 16.7080743,11.653696 C16.7260802,11.2946503 16.5190121,11.842195 15.9518254,12.0396701 C15.3756358,12.2281691 14.853464,10.6304157 15.6367217,10.2623938 C16.9961691,9.76870597 18.1485484,10.0649187 18.5896935,10.8727715 C19.7150639,10.3431791 21.0114905,10.0649187 21.7137217,10.3880598 C22.1458639,10.5945111 22.4429616,10.8189147 22.6410268,11.0792228 C23.7754001,10.4060121 25.2428831,10.0020857 26.0801586,10.3880598 C27.6466742,11.1151274 27.5026268,12.2102168 27.205529,13.6823043 C26.9804549,14.8312506 26.6113334,16.1417674 26.6743542,16.8598589 C26.719369,17.371499 26.8093986,17.622831 27.1605142,17.6318072 C27.8987571,17.6677117 29.1141571,16.429004 29.2311956,14.0503261 C29.4562697,9.75972983 25.7200401,6.43855695 21.3536031,6.66296052 C16.9241454,6.89634024 13.3679751,10.2175131 13.3679751,14.5709424 C13.3679751,18.6730397 16.7981039,20.1720556 21.2995854,20.1720556 C26.8544134,20.1720556 31.4999423,23.3137056 31.4999423,28.4929401 C31.5179482,33.6093415 27.3225675,37.40625 21.3085883,37.40625 Z" id="Shape" fill-rule="nonzero"></path>
                    <text id="Spacemark" font-family="Roboto-Bold, Roboto" font-size="36" font-weight="bold">
                        <tspan x="54" y="33">Spacemark</tspan>
                    </text>
                </g>
            </g>
        </g>
    </g>
</svg>