<?xml version="1.0" encoding="UTF-8"?>
<svg width="22px" height="22px" viewBox="0 0 22 22" version="1.1" xmlns="http://www.w3.org/2000/svg" xmlns:xlink="http://www.w3.org/1999/xlink">
    <!-- Generator: Sketch 48.2 (47327) - http://www.bohemiancoding.com/sketch -->
    <title>Shape</title>
    <desc>Created with Sketch.</desc>
    <defs>
        <linearGradient x1="102.9457%" y1="9.92967549%" x2="0%" y2="107.62357%" id="linearGradient-1">
            <stop stop-color="#712E98" offset="0%"></stop>
            <stop stop-color="#52A7EA" offset="100%"></stop>
        </linearGradient>
    </defs>
    <g id="Desktop-HD" stroke="none" stroke-width="1" fill="none" fill-rule="evenodd" transform="translate(-1353.000000, -3788.000000)" opacity="0.8">
        <g id="footer" transform="translate(0.000000, 3360.000000)" fill="#FFFFFF">
            <g id="social" transform="translate(1178.000000, 428.000000)">
                <path d="M185.999978,1.98202211 C188.937119,1.98202211 189.284995,1.99320024 190.4449,2.04612169 C191.517389,2.09506967 192.099831,2.27426907 192.487485,2.42486816 C193.000893,2.62441524 193.36737,2.86282379 193.752273,3.24772696 C194.137176,3.63263014 194.375585,3.99910686 194.575088,4.51251486 C194.725731,4.9001689 194.90493,5.48261059 194.953878,6.55505606 C195.0068,7.71500533 195.017978,8.06288095 195.017978,11.0000218 C195.017978,13.9371627 195.0068,14.2850383 194.953878,15.4449439 C194.90493,16.5174331 194.725731,17.0998748 194.575088,17.4875288 C194.375585,18.0009368 194.137176,18.3674135 193.752273,18.7523167 C193.36737,19.1372199 193.000893,19.3756284 192.487485,19.5751318 C192.099831,19.7257746 191.517389,19.904974 190.4449,19.953922 C189.285169,20.0068434 188.937294,20.0180216 185.999978,20.0180216 C183.062663,20.0180216 182.714787,20.0068434 181.555056,19.953922 C180.482567,19.904974 179.900125,19.7257746 179.512515,19.5751318 C178.999063,19.3756284 178.632586,19.1372199 178.247683,18.7523167 C177.86278,18.3674135 177.624372,18.0009368 177.424868,17.4875288 C177.274225,17.0998748 177.095026,16.5174331 177.046078,15.4449876 C176.993157,14.2850383 176.981978,13.9371627 176.981978,11.0000218 C176.981978,8.06288095 176.993157,7.71500533 177.046078,6.55509972 C177.095026,5.48261059 177.274225,4.9001689 177.424868,4.51251486 C177.624372,3.99910686 177.86278,3.63263014 178.247683,3.24772696 C178.632586,2.86282379 178.999063,2.62441524 179.512515,2.42486816 C179.900125,2.27426907 180.482567,2.09506967 181.555012,2.04612169 C182.714962,1.99320024 183.062837,1.98202211 185.999978,1.98202211 M185.999978,0 C188.987421,0 189.362019,0.0126627249 190.535242,0.0661954863 C191.706108,0.119640918 192.505693,0.305564652 193.205418,0.577507587 C193.928765,0.858620081 194.542209,1.23474668 195.153731,1.84626896 C195.765253,2.45779125 196.14138,3.07123477 196.422492,3.79458202 C196.694435,4.49430674 196.880359,5.29389232 196.933805,6.46475773 C196.987337,7.63798103 197,8.01257937 197,11.0000218 C197,13.9874643 196.987337,14.3620626 196.933805,15.5352859 C196.880359,16.7061513 196.694435,17.5057369 196.422492,18.2054616 C196.14138,18.9288089 195.765253,19.5422524 195.153731,20.1537747 C194.542209,20.765297 193.928765,21.1414236 193.205418,21.4225361 C192.505693,21.694479 191.706108,21.8804027 190.535242,21.9338482 C189.362019,21.9873809 188.987421,22 185.999978,22 C183.012536,22 182.637981,21.9873809 181.464714,21.9338482 C180.293849,21.8804027 179.494263,21.694479 178.794538,21.4225361 C178.071191,21.1414236 177.457748,20.765297 176.846225,20.1537747 C176.234703,19.5422524 175.858576,18.9287652 175.577464,18.2054616 C175.305521,17.5057369 175.119597,16.7061513 175.066152,15.5352859 C175.012619,14.3620626 175,13.9874643 175,11.0000218 C175,8.01257937 175.012619,7.63798103 175.066152,6.46475773 C175.119597,5.29389232 175.305521,4.49430674 175.577464,3.79458202 C175.858576,3.07123477 176.234703,2.45779125 176.846225,1.84626896 C177.457748,1.23474668 178.071191,0.858620081 178.794538,0.577507587 C179.494263,0.305564652 180.293849,0.119640918 181.464714,0.0661954863 C182.637981,0.0126627249 183.012536,0 185.999978,0 Z M186.021825,5.36904762 C182.899896,5.36904762 180.369048,7.89989627 180.369048,11.0218254 C180.369048,14.1437545 182.899896,16.6746032 186.021825,16.6746032 C189.143755,16.6746032 191.674603,14.1437545 191.674603,11.0218254 C191.674603,7.89989627 189.143755,5.36904762 186.021825,5.36904762 Z M186.021825,14.6911823 C183.99532,14.6911823 182.352468,13.0483308 182.352468,11.0218254 C182.352468,8.99531997 183.99532,7.35246845 186.021825,7.35246845 C188.048331,7.35246845 189.691182,8.99531997 189.691182,11.0218254 C189.691182,13.0483308 188.048331,14.6911823 186.021825,14.6911823 Z M193.15873,5.1071212 C193.15873,4.38388442 192.572465,3.79761905 191.849228,3.79761905 C191.125991,3.79761905 190.539683,4.38388442 190.539683,5.1071212 C190.539683,5.83035798 191.125991,6.41666667 191.849228,6.41666667 C192.572465,6.41666667 193.15873,5.83035798 193.15873,5.1071212 Z" id="Shape"></path>
            </g>
        </g>
    </g>
</svg>