<?xml version="1.0" encoding="UTF-8"?>
<svg width="22px" height="22px" viewBox="0 0 22 22" version="1.1" xmlns="http://www.w3.org/2000/svg" xmlns:xlink="http://www.w3.org/1999/xlink">
    <!-- Generator: Sketch 48.2 (47327) - http://www.bohemiancoding.com/sketch -->
    <title>Shape</title>
    <desc>Created with Sketch.</desc>
    <defs>
        <linearGradient x1="102.9457%" y1="9.92967549%" x2="0%" y2="107.62357%" id="linearGradient-1">
            <stop stop-color="#712E98" offset="0%"></stop>
            <stop stop-color="#52A7EA" offset="100%"></stop>
        </linearGradient>
    </defs>
    <g id="Desktop-HD" stroke="none" stroke-width="1" fill="none" fill-rule="evenodd" transform="translate(-1291.000000, -3788.000000)" opacity="0.8">
        <g id="footer" transform="translate(0.000000, 3360.000000)" fill="#FFFFFF">
            <g id="social" transform="translate(1178.000000, 428.000000)">
                <path d="M134.988668,0.92097039 L131.84587,19.7777533 C131.804948,20.0151012 131.674,20.1992476 131.453021,20.3301981 C131.338439,20.3956734 131.211583,20.4284106 131.072448,20.4284106 C130.982419,20.4284106 130.884208,20.4079498 130.777811,20.3670278 L125.216533,18.0958658 L122.245607,21.7174485 C122.098288,21.9056899 121.897773,21.9998091 121.644056,21.9998091 C121.537659,21.9998091 121.447632,21.9834406 121.373972,21.9507029 C121.218468,21.8934121 121.093658,21.7972467 120.999537,21.662204 C120.905417,21.5271612 120.858357,21.377798 120.858357,21.2141098 L120.858357,16.9295934 L131.465297,3.92872548 L118.341664,15.2845355 L113.492426,13.2957342 C113.189603,13.1811525 113.025917,12.9560846 113.001364,12.6205239 C112.984995,12.2931475 113.115944,12.0517111 113.394214,11.8962073 L133.822395,0.110717998 C133.945161,0.037058321 134.07611,0.000229035145 134.215245,0.000229035145 C134.378933,0.000229035145 134.52625,0.0452426068 134.657201,0.135271101 C134.927286,0.331696905 135.037774,0.593594049 134.988668,0.92097039 Z" id="Shape"></path>
            </g>
        </g>
    </g>
</svg>