<?xml version="1.0" encoding="UTF-8"?>
<svg width="21px" height="18px" viewBox="0 0 21 18" version="1.1" xmlns="http://www.w3.org/2000/svg" xmlns:xlink="http://www.w3.org/1999/xlink">
    <!-- Generator: Sketch 48.2 (47327) - http://www.bohemiancoding.com/sketch -->
    <title>Shape</title>
    <desc>Created with Sketch.</desc>
    <defs>
        <linearGradient x1="102.9457%" y1="9.92967549%" x2="0%" y2="107.62357%" id="linearGradient-1">
            <stop stop-color="#712E98" offset="0%"></stop>
            <stop stop-color="#52A7EA" offset="100%"></stop>
        </linearGradient>
    </defs>
    <g id="Desktop-HD" stroke="none" stroke-width="1" fill="none" fill-rule="evenodd" transform="translate(-1234.000000, -3791.000000)" opacity="0.8">
        <g id="footer" transform="translate(0.000000, 3360.000000)" fill="#FFFFFF">
            <g id="social" transform="translate(1178.000000, 428.000000)">
                <path d="M74.526149,5.84573162 C75.4160944,5.28412538 76.0989611,4.39361548 76.41944,3.3328037 C75.5861948,3.85410949 74.6654341,4.23111368 73.6830428,4.43521595 C72.899102,3.55120612 71.7786582,3 70.5386512,3 C68.1597112,3 66.231907,5.03452261 66.231907,7.54355048 C66.231907,7.89975444 66.2676528,8.2468583 66.3416094,8.57836198 C62.762106,8.38855987 59.5881317,6.58153979 57.4618771,3.83070923 C57.0908611,4.50411671 56.8788519,5.28412538 56.8788519,6.11613462 C56.8788519,7.69175213 57.6393731,9.08276759 58.7955626,9.89917666 C58.0892763,9.8757764 57.4248987,9.6690741 56.8431062,9.33107035 L56.8431062,9.38697097 C56.8431062,11.5891954 58.3271703,13.4261158 60.3005811,13.8421205 C59.9381933,13.9487217 59.558549,14.0020222 59.1641134,14.0020222 C58.8867758,14.0020222 58.6156013,13.9747219 58.3542877,13.9214213 C58.9015672,15.7258414 60.4928685,17.041456 62.3787639,17.0765564 C60.9033281,18.29597 59.0457827,19.021378 57.0279979,19.021378 C56.6804015,19.021378 56.3365029,19.0018778 56,18.9589773 C57.9068498,20.2472916 60.1711569,21 62.6043317,21 C70.5300229,21 74.8614193,14.0761231 74.8614193,8.07135635 C74.8614193,7.87375415 74.858954,7.67745197 74.8503258,7.48374982 C75.6921993,6.8428427 76.4243705,6.0420338 77,5.13072367 C76.2271527,5.49212769 75.3963726,5.73653041 74.526149,5.84573162 Z" id="Shape"></path>
            </g>
        </g>
    </g>
</svg>